<?xml version="1.0" encoding="utf-8" standalone="no"?>
<!DOCTYPE svg PUBLIC "-//W3C//DTD SVG 1.1//EN"
  "http://www.w3.org/Graphics/SVG/1.1/DTD/svg11.dtd">
<svg xmlns:xlink="http://www.w3.org/1999/xlink" width="633.506953pt" height="234.977187pt" viewBox="0 0 633.506953 234.977187" xmlns="http://www.w3.org/2000/svg" version="1.1">
 <metadata>
  <rdf:RDF xmlns:dc="http://purl.org/dc/elements/1.1/" xmlns:cc="http://creativecommons.org/ns#" xmlns:rdf="http://www.w3.org/1999/02/22-rdf-syntax-ns#">
   <cc:Work>
    <dc:type rdf:resource="http://purl.org/dc/dcmitype/StillImage"/>
    <dc:date>2026-04-10T13:32:45.126778</dc:date>
    <dc:format>image/svg+xml</dc:format>
    <dc:creator>
     <cc:Agent>
      <dc:title>Matplotlib v3.10.8, https://matplotlib.org/</dc:title>
     </cc:Agent>
    </dc:creator>
   </cc:Work>
  </rdf:RDF>
 </metadata>
 <defs>
  <style type="text/css">*{stroke-linejoin: round; stroke-linecap: butt}</style>
 </defs>
 <g id="figure_1">
  <g id="patch_1">
   <path d="M 0 234.977187 
L 633.506953 234.977187 
L 633.506953 0 
L 0 0 
z
" style="fill: #ffffff"/>
  </g>
  <g id="axes_1">
   <g id="patch_2">
    <path d="M 73.234141 207.518594 
L 342.343897 207.518594 
L 342.343897 14.278594 
L 73.234141 14.278594 
z
" style="fill: #ffffff"/>
   </g>
   <g id="matplotlib.axis_1">
    <g id="xtick_1">
     <g id="line2d_1">
      <path d="M 78.510803 207.518594 
L 78.510803 14.278594 
" clip-path="url(#p30c445eeda)" style="fill: none; stroke: #ececec; stroke-width: 0.7; stroke-linecap: square"/>
     </g>
     <g id="line2d_2">
      <defs>
       <path id="mba4c54877e" d="M 0 0 
L 0 3.5 
" style="stroke: #000000; stroke-width: 0.8"/>
      </defs>
      <g>
       <use xlink:href="#mba4c54877e" x="78.510803" y="207.518594" style="stroke: #000000; stroke-width: 0.8"/>
      </g>
     </g>
     <g id="text_1">
      <!-- 0 -->
      <g transform="translate(76.124865 220.217422) scale(0.075 -0.075)">
       <defs>
        <path id="DejaVuSans-30" d="M 2034 4250 
Q 1547 4250 1301 3770 
Q 1056 3291 1056 2328 
Q 1056 1369 1301 889 
Q 1547 409 2034 409 
Q 2525 409 2770 889 
Q 3016 1369 3016 2328 
Q 3016 3291 2770 3770 
Q 2525 4250 2034 4250 
z
M 2034 4750 
Q 2819 4750 3233 4129 
Q 3647 3509 3647 2328 
Q 3647 1150 3233 529 
Q 2819 -91 2034 -91 
Q 1250 -91 836 529 
Q 422 1150 422 2328 
Q 422 3509 836 4129 
Q 1250 4750 2034 4750 
z
" transform="scale(0.015625)"/>
       </defs>
       <use xlink:href="#DejaVuSans-30"/>
      </g>
     </g>
    </g>
    <g id="xtick_2">
     <g id="line2d_3">
      <path d="M 131.277421 207.518594 
L 131.277421 14.278594 
" clip-path="url(#p30c445eeda)" style="fill: none; stroke: #ececec; stroke-width: 0.7; stroke-linecap: square"/>
     </g>
     <g id="line2d_4">
      <g>
       <use xlink:href="#mba4c54877e" x="131.277421" y="207.518594" style="stroke: #000000; stroke-width: 0.8"/>
      </g>
     </g>
     <g id="text_2">
      <!-- 20 -->
      <g transform="translate(126.505546 220.217422) scale(0.075 -0.075)">
       <defs>
        <path id="DejaVuSans-32" d="M 1228 531 
L 3431 531 
L 3431 0 
L 469 0 
L 469 531 
Q 828 903 1448 1529 
Q 2069 2156 2228 2338 
Q 2531 2678 2651 2914 
Q 2772 3150 2772 3378 
Q 2772 3750 2511 3984 
Q 2250 4219 1831 4219 
Q 1534 4219 1204 4116 
Q 875 4013 500 3803 
L 500 4441 
Q 881 4594 1212 4672 
Q 1544 4750 1819 4750 
Q 2544 4750 2975 4387 
Q 3406 4025 3406 3419 
Q 3406 3131 3298 2873 
Q 3191 2616 2906 2266 
Q 2828 2175 2409 1742 
Q 1991 1309 1228 531 
z
" transform="scale(0.015625)"/>
       </defs>
       <use xlink:href="#DejaVuSans-32"/>
       <use xlink:href="#DejaVuSans-30" transform="translate(63.623047 0)"/>
      </g>
     </g>
    </g>
    <g id="xtick_3">
     <g id="line2d_5">
      <path d="M 184.04404 207.518594 
L 184.04404 14.278594 
" clip-path="url(#p30c445eeda)" style="fill: none; stroke: #ececec; stroke-width: 0.7; stroke-linecap: square"/>
     </g>
     <g id="line2d_6">
      <g>
       <use xlink:href="#mba4c54877e" x="184.04404" y="207.518594" style="stroke: #000000; stroke-width: 0.8"/>
      </g>
     </g>
     <g id="text_3">
      <!-- 40 -->
      <g transform="translate(179.272165 220.217422) scale(0.075 -0.075)">
       <defs>
        <path id="DejaVuSans-34" d="M 2419 4116 
L 825 1625 
L 2419 1625 
L 2419 4116 
z
M 2253 4666 
L 3047 4666 
L 3047 1625 
L 3713 1625 
L 3713 1100 
L 3047 1100 
L 3047 0 
L 2419 0 
L 2419 1100 
L 313 1100 
L 313 1709 
L 2253 4666 
z
" transform="scale(0.015625)"/>
       </defs>
       <use xlink:href="#DejaVuSans-34"/>
       <use xlink:href="#DejaVuSans-30" transform="translate(63.623047 0)"/>
      </g>
     </g>
    </g>
    <g id="xtick_4">
     <g id="line2d_7">
      <path d="M 236.810659 207.518594 
L 236.810659 14.278594 
" clip-path="url(#p30c445eeda)" style="fill: none; stroke: #ececec; stroke-width: 0.7; stroke-linecap: square"/>
     </g>
     <g id="line2d_8">
      <g>
       <use xlink:href="#mba4c54877e" x="236.810659" y="207.518594" style="stroke: #000000; stroke-width: 0.8"/>
      </g>
     </g>
     <g id="text_4">
      <!-- 60 -->
      <g transform="translate(232.038784 220.217422) scale(0.075 -0.075)">
       <defs>
        <path id="DejaVuSans-36" d="M 2113 2584 
Q 1688 2584 1439 2293 
Q 1191 2003 1191 1497 
Q 1191 994 1439 701 
Q 1688 409 2113 409 
Q 2538 409 2786 701 
Q 3034 994 3034 1497 
Q 3034 2003 2786 2293 
Q 2538 2584 2113 2584 
z
M 3366 4563 
L 3366 3988 
Q 3128 4100 2886 4159 
Q 2644 4219 2406 4219 
Q 1781 4219 1451 3797 
Q 1122 3375 1075 2522 
Q 1259 2794 1537 2939 
Q 1816 3084 2150 3084 
Q 2853 3084 3261 2657 
Q 3669 2231 3669 1497 
Q 3669 778 3244 343 
Q 2819 -91 2113 -91 
Q 1303 -91 875 529 
Q 447 1150 447 2328 
Q 447 3434 972 4092 
Q 1497 4750 2381 4750 
Q 2619 4750 2861 4703 
Q 3103 4656 3366 4563 
z
" transform="scale(0.015625)"/>
       </defs>
       <use xlink:href="#DejaVuSans-36"/>
       <use xlink:href="#DejaVuSans-30" transform="translate(63.623047 0)"/>
      </g>
     </g>
    </g>
    <g id="xtick_5">
     <g id="line2d_9">
      <path d="M 289.577278 207.518594 
L 289.577278 14.278594 
" clip-path="url(#p30c445eeda)" style="fill: none; stroke: #ececec; stroke-width: 0.7; stroke-linecap: square"/>
     </g>
     <g id="line2d_10">
      <g>
       <use xlink:href="#mba4c54877e" x="289.577278" y="207.518594" style="stroke: #000000; stroke-width: 0.8"/>
      </g>
     </g>
     <g id="text_5">
      <!-- 80 -->
      <g transform="translate(284.805403 220.217422) scale(0.075 -0.075)">
       <defs>
        <path id="DejaVuSans-38" d="M 2034 2216 
Q 1584 2216 1326 1975 
Q 1069 1734 1069 1313 
Q 1069 891 1326 650 
Q 1584 409 2034 409 
Q 2484 409 2743 651 
Q 3003 894 3003 1313 
Q 3003 1734 2745 1975 
Q 2488 2216 2034 2216 
z
M 1403 2484 
Q 997 2584 770 2862 
Q 544 3141 544 3541 
Q 544 4100 942 4425 
Q 1341 4750 2034 4750 
Q 2731 4750 3128 4425 
Q 3525 4100 3525 3541 
Q 3525 3141 3298 2862 
Q 3072 2584 2669 2484 
Q 3125 2378 3379 2068 
Q 3634 1759 3634 1313 
Q 3634 634 3220 271 
Q 2806 -91 2034 -91 
Q 1263 -91 848 271 
Q 434 634 434 1313 
Q 434 1759 690 2068 
Q 947 2378 1403 2484 
z
M 1172 3481 
Q 1172 3119 1398 2916 
Q 1625 2713 2034 2713 
Q 2441 2713 2670 2916 
Q 2900 3119 2900 3481 
Q 2900 3844 2670 4047 
Q 2441 4250 2034 4250 
Q 1625 4250 1398 4047 
Q 1172 3844 1172 3481 
z
" transform="scale(0.015625)"/>
       </defs>
       <use xlink:href="#DejaVuSans-38"/>
       <use xlink:href="#DejaVuSans-30" transform="translate(63.623047 0)"/>
      </g>
     </g>
    </g>
    <g id="xtick_6">
     <g id="line2d_11">
      <path d="M 342.343897 207.518594 
L 342.343897 14.278594 
" clip-path="url(#p30c445eeda)" style="fill: none; stroke: #ececec; stroke-width: 0.7; stroke-linecap: square"/>
     </g>
     <g id="line2d_12">
      <g>
       <use xlink:href="#mba4c54877e" x="342.343897" y="207.518594" style="stroke: #000000; stroke-width: 0.8"/>
      </g>
     </g>
     <g id="text_6">
      <!-- 100 -->
      <g transform="translate(335.186084 220.217422) scale(0.075 -0.075)">
       <defs>
        <path id="DejaVuSans-31" d="M 794 531 
L 1825 531 
L 1825 4091 
L 703 3866 
L 703 4441 
L 1819 4666 
L 2450 4666 
L 2450 531 
L 3481 531 
L 3481 0 
L 794 0 
L 794 531 
z
" transform="scale(0.015625)"/>
       </defs>
       <use xlink:href="#DejaVuSans-31"/>
       <use xlink:href="#DejaVuSans-30" transform="translate(63.623047 0)"/>
       <use xlink:href="#DejaVuSans-30" transform="translate(127.246094 0)"/>
      </g>
     </g>
    </g>
    <g id="text_7">
     <!-- Turns containing tactic  [%] -->
     <g transform="translate(153.085269 231.855937) scale(0.08 -0.08)">
      <defs>
       <path id="DejaVuSans-54" d="M -19 4666 
L 3928 4666 
L 3928 4134 
L 2272 4134 
L 2272 0 
L 1638 0 
L 1638 4134 
L -19 4134 
L -19 4666 
z
" transform="scale(0.015625)"/>
       <path id="DejaVuSans-75" d="M 544 1381 
L 544 3500 
L 1119 3500 
L 1119 1403 
Q 1119 906 1312 657 
Q 1506 409 1894 409 
Q 2359 409 2629 706 
Q 2900 1003 2900 1516 
L 2900 3500 
L 3475 3500 
L 3475 0 
L 2900 0 
L 2900 538 
Q 2691 219 2414 64 
Q 2138 -91 1772 -91 
Q 1169 -91 856 284 
Q 544 659 544 1381 
z
M 1991 3584 
L 1991 3584 
z
" transform="scale(0.015625)"/>
       <path id="DejaVuSans-72" d="M 2631 2963 
Q 2534 3019 2420 3045 
Q 2306 3072 2169 3072 
Q 1681 3072 1420 2755 
Q 1159 2438 1159 1844 
L 1159 0 
L 581 0 
L 581 3500 
L 1159 3500 
L 1159 2956 
Q 1341 3275 1631 3429 
Q 1922 3584 2338 3584 
Q 2397 3584 2469 3576 
Q 2541 3569 2628 3553 
L 2631 2963 
z
" transform="scale(0.015625)"/>
       <path id="DejaVuSans-6e" d="M 3513 2113 
L 3513 0 
L 2938 0 
L 2938 2094 
Q 2938 2591 2744 2837 
Q 2550 3084 2163 3084 
Q 1697 3084 1428 2787 
Q 1159 2491 1159 1978 
L 1159 0 
L 581 0 
L 581 3500 
L 1159 3500 
L 1159 2956 
Q 1366 3272 1645 3428 
Q 1925 3584 2291 3584 
Q 2894 3584 3203 3211 
Q 3513 2838 3513 2113 
z
" transform="scale(0.015625)"/>
       <path id="DejaVuSans-73" d="M 2834 3397 
L 2834 2853 
Q 2591 2978 2328 3040 
Q 2066 3103 1784 3103 
Q 1356 3103 1142 2972 
Q 928 2841 928 2578 
Q 928 2378 1081 2264 
Q 1234 2150 1697 2047 
L 1894 2003 
Q 2506 1872 2764 1633 
Q 3022 1394 3022 966 
Q 3022 478 2636 193 
Q 2250 -91 1575 -91 
Q 1294 -91 989 -36 
Q 684 19 347 128 
L 347 722 
Q 666 556 975 473 
Q 1284 391 1588 391 
Q 1994 391 2212 530 
Q 2431 669 2431 922 
Q 2431 1156 2273 1281 
Q 2116 1406 1581 1522 
L 1381 1569 
Q 847 1681 609 1914 
Q 372 2147 372 2553 
Q 372 3047 722 3315 
Q 1072 3584 1716 3584 
Q 2034 3584 2315 3537 
Q 2597 3491 2834 3397 
z
" transform="scale(0.015625)"/>
       <path id="DejaVuSans-20" transform="scale(0.015625)"/>
       <path id="DejaVuSans-63" d="M 3122 3366 
L 3122 2828 
Q 2878 2963 2633 3030 
Q 2388 3097 2138 3097 
Q 1578 3097 1268 2742 
Q 959 2388 959 1747 
Q 959 1106 1268 751 
Q 1578 397 2138 397 
Q 2388 397 2633 464 
Q 2878 531 3122 666 
L 3122 134 
Q 2881 22 2623 -34 
Q 2366 -91 2075 -91 
Q 1284 -91 818 406 
Q 353 903 353 1747 
Q 353 2603 823 3093 
Q 1294 3584 2113 3584 
Q 2378 3584 2631 3529 
Q 2884 3475 3122 3366 
z
" transform="scale(0.015625)"/>
       <path id="DejaVuSans-6f" d="M 1959 3097 
Q 1497 3097 1228 2736 
Q 959 2375 959 1747 
Q 959 1119 1226 758 
Q 1494 397 1959 397 
Q 2419 397 2687 759 
Q 2956 1122 2956 1747 
Q 2956 2369 2687 2733 
Q 2419 3097 1959 3097 
z
M 1959 3584 
Q 2709 3584 3137 3096 
Q 3566 2609 3566 1747 
Q 3566 888 3137 398 
Q 2709 -91 1959 -91 
Q 1206 -91 779 398 
Q 353 888 353 1747 
Q 353 2609 779 3096 
Q 1206 3584 1959 3584 
z
" transform="scale(0.015625)"/>
       <path id="DejaVuSans-74" d="M 1172 4494 
L 1172 3500 
L 2356 3500 
L 2356 3053 
L 1172 3053 
L 1172 1153 
Q 1172 725 1289 603 
Q 1406 481 1766 481 
L 2356 481 
L 2356 0 
L 1766 0 
Q 1100 0 847 248 
Q 594 497 594 1153 
L 594 3053 
L 172 3053 
L 172 3500 
L 594 3500 
L 594 4494 
L 1172 4494 
z
" transform="scale(0.015625)"/>
       <path id="DejaVuSans-61" d="M 2194 1759 
Q 1497 1759 1228 1600 
Q 959 1441 959 1056 
Q 959 750 1161 570 
Q 1363 391 1709 391 
Q 2188 391 2477 730 
Q 2766 1069 2766 1631 
L 2766 1759 
L 2194 1759 
z
M 3341 1997 
L 3341 0 
L 2766 0 
L 2766 531 
Q 2569 213 2275 61 
Q 1981 -91 1556 -91 
Q 1019 -91 701 211 
Q 384 513 384 1019 
Q 384 1609 779 1909 
Q 1175 2209 1959 2209 
L 2766 2209 
L 2766 2266 
Q 2766 2663 2505 2880 
Q 2244 3097 1772 3097 
Q 1472 3097 1187 3025 
Q 903 2953 641 2809 
L 641 3341 
Q 956 3463 1253 3523 
Q 1550 3584 1831 3584 
Q 2591 3584 2966 3190 
Q 3341 2797 3341 1997 
z
" transform="scale(0.015625)"/>
       <path id="DejaVuSans-69" d="M 603 3500 
L 1178 3500 
L 1178 0 
L 603 0 
L 603 3500 
z
M 603 4863 
L 1178 4863 
L 1178 4134 
L 603 4134 
L 603 4863 
z
" transform="scale(0.015625)"/>
       <path id="DejaVuSans-67" d="M 2906 1791 
Q 2906 2416 2648 2759 
Q 2391 3103 1925 3103 
Q 1463 3103 1205 2759 
Q 947 2416 947 1791 
Q 947 1169 1205 825 
Q 1463 481 1925 481 
Q 2391 481 2648 825 
Q 2906 1169 2906 1791 
z
M 3481 434 
Q 3481 -459 3084 -895 
Q 2688 -1331 1869 -1331 
Q 1566 -1331 1297 -1286 
Q 1028 -1241 775 -1147 
L 775 -588 
Q 1028 -725 1275 -790 
Q 1522 -856 1778 -856 
Q 2344 -856 2625 -561 
Q 2906 -266 2906 331 
L 2906 616 
Q 2728 306 2450 153 
Q 2172 0 1784 0 
Q 1141 0 747 490 
Q 353 981 353 1791 
Q 353 2603 747 3093 
Q 1141 3584 1784 3584 
Q 2172 3584 2450 3431 
Q 2728 3278 2906 2969 
L 2906 3500 
L 3481 3500 
L 3481 434 
z
" transform="scale(0.015625)"/>
       <path id="DejaVuSans-5b" d="M 550 4863 
L 1875 4863 
L 1875 4416 
L 1125 4416 
L 1125 -397 
L 1875 -397 
L 1875 -844 
L 550 -844 
L 550 4863 
z
" transform="scale(0.015625)"/>
       <path id="DejaVuSans-25" d="M 4653 2053 
Q 4381 2053 4226 1822 
Q 4072 1591 4072 1178 
Q 4072 772 4226 539 
Q 4381 306 4653 306 
Q 4919 306 5073 539 
Q 5228 772 5228 1178 
Q 5228 1588 5073 1820 
Q 4919 2053 4653 2053 
z
M 4653 2450 
Q 5147 2450 5437 2106 
Q 5728 1763 5728 1178 
Q 5728 594 5436 251 
Q 5144 -91 4653 -91 
Q 4153 -91 3862 251 
Q 3572 594 3572 1178 
Q 3572 1766 3864 2108 
Q 4156 2450 4653 2450 
z
M 1428 4353 
Q 1159 4353 1004 4120 
Q 850 3888 850 3481 
Q 850 3069 1003 2837 
Q 1156 2606 1428 2606 
Q 1700 2606 1854 2837 
Q 2009 3069 2009 3481 
Q 2009 3884 1853 4118 
Q 1697 4353 1428 4353 
z
M 4250 4750 
L 4750 4750 
L 1831 -91 
L 1331 -91 
L 4250 4750 
z
M 1428 4750 
Q 1922 4750 2215 4408 
Q 2509 4066 2509 3481 
Q 2509 2891 2217 2550 
Q 1925 2209 1428 2209 
Q 931 2209 642 2551 
Q 353 2894 353 3481 
Q 353 4063 643 4406 
Q 934 4750 1428 4750 
z
" transform="scale(0.015625)"/>
       <path id="DejaVuSans-5d" d="M 1947 4863 
L 1947 -844 
L 622 -844 
L 622 -397 
L 1369 -397 
L 1369 4416 
L 622 4416 
L 622 4863 
L 1947 4863 
z
" transform="scale(0.015625)"/>
      </defs>
      <use xlink:href="#DejaVuSans-54"/>
      <use xlink:href="#DejaVuSans-75" transform="translate(45.958984 0)"/>
      <use xlink:href="#DejaVuSans-72" transform="translate(109.337891 0)"/>
      <use xlink:href="#DejaVuSans-6e" transform="translate(148.701172 0)"/>
      <use xlink:href="#DejaVuSans-73" transform="translate(212.080078 0)"/>
      <use xlink:href="#DejaVuSans-20" transform="translate(264.179688 0)"/>
      <use xlink:href="#DejaVuSans-63" transform="translate(295.966797 0)"/>
      <use xlink:href="#DejaVuSans-6f" transform="translate(350.947266 0)"/>
      <use xlink:href="#DejaVuSans-6e" transform="translate(412.128906 0)"/>
      <use xlink:href="#DejaVuSans-74" transform="translate(475.507812 0)"/>
      <use xlink:href="#DejaVuSans-61" transform="translate(514.716797 0)"/>
      <use xlink:href="#DejaVuSans-69" transform="translate(575.996094 0)"/>
      <use xlink:href="#DejaVuSans-6e" transform="translate(603.779297 0)"/>
      <use xlink:href="#DejaVuSans-69" transform="translate(667.158203 0)"/>
      <use xlink:href="#DejaVuSans-6e" transform="translate(694.941406 0)"/>
      <use xlink:href="#DejaVuSans-67" transform="translate(758.320312 0)"/>
      <use xlink:href="#DejaVuSans-20" transform="translate(821.796875 0)"/>
      <use xlink:href="#DejaVuSans-74" transform="translate(853.583984 0)"/>
      <use xlink:href="#DejaVuSans-61" transform="translate(892.792969 0)"/>
      <use xlink:href="#DejaVuSans-63" transform="translate(954.072266 0)"/>
      <use xlink:href="#DejaVuSans-74" transform="translate(1009.052734 0)"/>
      <use xlink:href="#DejaVuSans-69" transform="translate(1048.261719 0)"/>
      <use xlink:href="#DejaVuSans-63" transform="translate(1076.044922 0)"/>
      <use xlink:href="#DejaVuSans-20" transform="translate(1131.025391 0)"/>
      <use xlink:href="#DejaVuSans-20" transform="translate(1162.8125 0)"/>
      <use xlink:href="#DejaVuSans-5b" transform="translate(1194.599609 0)"/>
      <use xlink:href="#DejaVuSans-25" transform="translate(1233.613281 0)"/>
      <use xlink:href="#DejaVuSans-5d" transform="translate(1328.632812 0)"/>
     </g>
    </g>
   </g>
   <g id="matplotlib.axis_2">
    <g id="ytick_1">
     <g id="line2d_13">
      <defs>
       <path id="m764d4bc781" d="M 0 0 
L -3.5 0 
" style="stroke: #000000; stroke-width: 0.8"/>
      </defs>
      <g>
       <use xlink:href="#m764d4bc781" x="73.234141" y="196.151535" style="stroke: #000000; stroke-width: 0.8"/>
      </g>
     </g>
     <g id="text_8">
      <!-- Self-disclosure -->
      <g transform="translate(12.102891 199.000949) scale(0.075 -0.075)">
       <defs>
        <path id="DejaVuSans-53" d="M 3425 4513 
L 3425 3897 
Q 3066 4069 2747 4153 
Q 2428 4238 2131 4238 
Q 1616 4238 1336 4038 
Q 1056 3838 1056 3469 
Q 1056 3159 1242 3001 
Q 1428 2844 1947 2747 
L 2328 2669 
Q 3034 2534 3370 2195 
Q 3706 1856 3706 1288 
Q 3706 609 3251 259 
Q 2797 -91 1919 -91 
Q 1588 -91 1214 -16 
Q 841 59 441 206 
L 441 856 
Q 825 641 1194 531 
Q 1563 422 1919 422 
Q 2459 422 2753 634 
Q 3047 847 3047 1241 
Q 3047 1584 2836 1778 
Q 2625 1972 2144 2069 
L 1759 2144 
Q 1053 2284 737 2584 
Q 422 2884 422 3419 
Q 422 4038 858 4394 
Q 1294 4750 2059 4750 
Q 2388 4750 2728 4690 
Q 3069 4631 3425 4513 
z
" transform="scale(0.015625)"/>
        <path id="DejaVuSans-65" d="M 3597 1894 
L 3597 1613 
L 953 1613 
Q 991 1019 1311 708 
Q 1631 397 2203 397 
Q 2534 397 2845 478 
Q 3156 559 3463 722 
L 3463 178 
Q 3153 47 2828 -22 
Q 2503 -91 2169 -91 
Q 1331 -91 842 396 
Q 353 884 353 1716 
Q 353 2575 817 3079 
Q 1281 3584 2069 3584 
Q 2775 3584 3186 3129 
Q 3597 2675 3597 1894 
z
M 3022 2063 
Q 3016 2534 2758 2815 
Q 2500 3097 2075 3097 
Q 1594 3097 1305 2825 
Q 1016 2553 972 2059 
L 3022 2063 
z
" transform="scale(0.015625)"/>
        <path id="DejaVuSans-6c" d="M 603 4863 
L 1178 4863 
L 1178 0 
L 603 0 
L 603 4863 
z
" transform="scale(0.015625)"/>
        <path id="DejaVuSans-66" d="M 2375 4863 
L 2375 4384 
L 1825 4384 
Q 1516 4384 1395 4259 
Q 1275 4134 1275 3809 
L 1275 3500 
L 2222 3500 
L 2222 3053 
L 1275 3053 
L 1275 0 
L 697 0 
L 697 3053 
L 147 3053 
L 147 3500 
L 697 3500 
L 697 3744 
Q 697 4328 969 4595 
Q 1241 4863 1831 4863 
L 2375 4863 
z
" transform="scale(0.015625)"/>
        <path id="DejaVuSans-2d" d="M 313 2009 
L 1997 2009 
L 1997 1497 
L 313 1497 
L 313 2009 
z
" transform="scale(0.015625)"/>
        <path id="DejaVuSans-64" d="M 2906 2969 
L 2906 4863 
L 3481 4863 
L 3481 0 
L 2906 0 
L 2906 525 
Q 2725 213 2448 61 
Q 2172 -91 1784 -91 
Q 1150 -91 751 415 
Q 353 922 353 1747 
Q 353 2572 751 3078 
Q 1150 3584 1784 3584 
Q 2172 3584 2448 3432 
Q 2725 3281 2906 2969 
z
M 947 1747 
Q 947 1113 1208 752 
Q 1469 391 1925 391 
Q 2381 391 2643 752 
Q 2906 1113 2906 1747 
Q 2906 2381 2643 2742 
Q 2381 3103 1925 3103 
Q 1469 3103 1208 2742 
Q 947 2381 947 1747 
z
" transform="scale(0.015625)"/>
       </defs>
       <use xlink:href="#DejaVuSans-53"/>
       <use xlink:href="#DejaVuSans-65" transform="translate(63.476562 0)"/>
       <use xlink:href="#DejaVuSans-6c" transform="translate(125 0)"/>
       <use xlink:href="#DejaVuSans-66" transform="translate(152.783203 0)"/>
       <use xlink:href="#DejaVuSans-2d" transform="translate(182.488281 0)"/>
       <use xlink:href="#DejaVuSans-64" transform="translate(218.572266 0)"/>
       <use xlink:href="#DejaVuSans-69" transform="translate(282.048828 0)"/>
       <use xlink:href="#DejaVuSans-73" transform="translate(309.832031 0)"/>
       <use xlink:href="#DejaVuSans-63" transform="translate(361.931641 0)"/>
       <use xlink:href="#DejaVuSans-6c" transform="translate(416.912109 0)"/>
       <use xlink:href="#DejaVuSans-6f" transform="translate(444.695312 0)"/>
       <use xlink:href="#DejaVuSans-73" transform="translate(505.876953 0)"/>
       <use xlink:href="#DejaVuSans-75" transform="translate(557.976562 0)"/>
       <use xlink:href="#DejaVuSans-72" transform="translate(621.355469 0)"/>
       <use xlink:href="#DejaVuSans-65" transform="translate(660.21875 0)"/>
      </g>
     </g>
    </g>
    <g id="ytick_2">
     <g id="line2d_14">
      <g>
       <use xlink:href="#m764d4bc781" x="73.234141" y="177.206437" style="stroke: #000000; stroke-width: 0.8"/>
      </g>
     </g>
     <g id="text_9">
      <!-- Assistance -->
      <g transform="translate(26.270859 180.055851) scale(0.075 -0.075)">
       <defs>
        <path id="DejaVuSans-41" d="M 2188 4044 
L 1331 1722 
L 3047 1722 
L 2188 4044 
z
M 1831 4666 
L 2547 4666 
L 4325 0 
L 3669 0 
L 3244 1197 
L 1141 1197 
L 716 0 
L 50 0 
L 1831 4666 
z
" transform="scale(0.015625)"/>
       </defs>
       <use xlink:href="#DejaVuSans-41"/>
       <use xlink:href="#DejaVuSans-73" transform="translate(68.408203 0)"/>
       <use xlink:href="#DejaVuSans-73" transform="translate(120.507812 0)"/>
       <use xlink:href="#DejaVuSans-69" transform="translate(172.607422 0)"/>
       <use xlink:href="#DejaVuSans-73" transform="translate(200.390625 0)"/>
       <use xlink:href="#DejaVuSans-74" transform="translate(252.490234 0)"/>
       <use xlink:href="#DejaVuSans-61" transform="translate(291.699219 0)"/>
       <use xlink:href="#DejaVuSans-6e" transform="translate(352.978516 0)"/>
       <use xlink:href="#DejaVuSans-63" transform="translate(416.357422 0)"/>
       <use xlink:href="#DejaVuSans-65" transform="translate(471.337891 0)"/>
      </g>
     </g>
    </g>
    <g id="ytick_3">
     <g id="line2d_15">
      <g>
       <use xlink:href="#m764d4bc781" x="73.234141" y="158.261339" style="stroke: #000000; stroke-width: 0.8"/>
      </g>
     </g>
     <g id="text_10">
      <!-- Emot. expression -->
      <g transform="translate(1.44 161.110753) scale(0.075 -0.075)">
       <defs>
        <path id="DejaVuSans-45" d="M 628 4666 
L 3578 4666 
L 3578 4134 
L 1259 4134 
L 1259 2753 
L 3481 2753 
L 3481 2222 
L 1259 2222 
L 1259 531 
L 3634 531 
L 3634 0 
L 628 0 
L 628 4666 
z
" transform="scale(0.015625)"/>
        <path id="DejaVuSans-6d" d="M 3328 2828 
Q 3544 3216 3844 3400 
Q 4144 3584 4550 3584 
Q 5097 3584 5394 3201 
Q 5691 2819 5691 2113 
L 5691 0 
L 5113 0 
L 5113 2094 
Q 5113 2597 4934 2840 
Q 4756 3084 4391 3084 
Q 3944 3084 3684 2787 
Q 3425 2491 3425 1978 
L 3425 0 
L 2847 0 
L 2847 2094 
Q 2847 2600 2669 2842 
Q 2491 3084 2119 3084 
Q 1678 3084 1418 2786 
Q 1159 2488 1159 1978 
L 1159 0 
L 581 0 
L 581 3500 
L 1159 3500 
L 1159 2956 
Q 1356 3278 1631 3431 
Q 1906 3584 2284 3584 
Q 2666 3584 2933 3390 
Q 3200 3197 3328 2828 
z
" transform="scale(0.015625)"/>
        <path id="DejaVuSans-2e" d="M 684 794 
L 1344 794 
L 1344 0 
L 684 0 
L 684 794 
z
" transform="scale(0.015625)"/>
        <path id="DejaVuSans-78" d="M 3513 3500 
L 2247 1797 
L 3578 0 
L 2900 0 
L 1881 1375 
L 863 0 
L 184 0 
L 1544 1831 
L 300 3500 
L 978 3500 
L 1906 2253 
L 2834 3500 
L 3513 3500 
z
" transform="scale(0.015625)"/>
        <path id="DejaVuSans-70" d="M 1159 525 
L 1159 -1331 
L 581 -1331 
L 581 3500 
L 1159 3500 
L 1159 2969 
Q 1341 3281 1617 3432 
Q 1894 3584 2278 3584 
Q 2916 3584 3314 3078 
Q 3713 2572 3713 1747 
Q 3713 922 3314 415 
Q 2916 -91 2278 -91 
Q 1894 -91 1617 61 
Q 1341 213 1159 525 
z
M 3116 1747 
Q 3116 2381 2855 2742 
Q 2594 3103 2138 3103 
Q 1681 3103 1420 2742 
Q 1159 2381 1159 1747 
Q 1159 1113 1420 752 
Q 1681 391 2138 391 
Q 2594 391 2855 752 
Q 3116 1113 3116 1747 
z
" transform="scale(0.015625)"/>
       </defs>
       <use xlink:href="#DejaVuSans-45"/>
       <use xlink:href="#DejaVuSans-6d" transform="translate(63.183594 0)"/>
       <use xlink:href="#DejaVuSans-6f" transform="translate(160.595703 0)"/>
       <use xlink:href="#DejaVuSans-74" transform="translate(221.777344 0)"/>
       <use xlink:href="#DejaVuSans-2e" transform="translate(260.986328 0)"/>
       <use xlink:href="#DejaVuSans-20" transform="translate(292.773438 0)"/>
       <use xlink:href="#DejaVuSans-65" transform="translate(324.560547 0)"/>
       <use xlink:href="#DejaVuSans-78" transform="translate(384.333984 0)"/>
       <use xlink:href="#DejaVuSans-70" transform="translate(443.513672 0)"/>
       <use xlink:href="#DejaVuSans-72" transform="translate(506.990234 0)"/>
       <use xlink:href="#DejaVuSans-65" transform="translate(545.853516 0)"/>
       <use xlink:href="#DejaVuSans-73" transform="translate(607.376953 0)"/>
       <use xlink:href="#DejaVuSans-73" transform="translate(659.476562 0)"/>
       <use xlink:href="#DejaVuSans-69" transform="translate(711.576172 0)"/>
       <use xlink:href="#DejaVuSans-6f" transform="translate(739.359375 0)"/>
       <use xlink:href="#DejaVuSans-6e" transform="translate(800.541016 0)"/>
      </g>
     </g>
    </g>
    <g id="ytick_4">
     <g id="line2d_16">
      <g>
       <use xlink:href="#m764d4bc781" x="73.234141" y="139.316241" style="stroke: #000000; stroke-width: 0.8"/>
      </g>
     </g>
     <g id="text_11">
      <!-- Empowerment -->
      <g transform="translate(11.525156 142.165655) scale(0.075 -0.075)">
       <defs>
        <path id="DejaVuSans-77" d="M 269 3500 
L 844 3500 
L 1563 769 
L 2278 3500 
L 2956 3500 
L 3675 769 
L 4391 3500 
L 4966 3500 
L 4050 0 
L 3372 0 
L 2619 2869 
L 1863 0 
L 1184 0 
L 269 3500 
z
" transform="scale(0.015625)"/>
       </defs>
       <use xlink:href="#DejaVuSans-45"/>
       <use xlink:href="#DejaVuSans-6d" transform="translate(63.183594 0)"/>
       <use xlink:href="#DejaVuSans-70" transform="translate(160.595703 0)"/>
       <use xlink:href="#DejaVuSans-6f" transform="translate(224.072266 0)"/>
       <use xlink:href="#DejaVuSans-77" transform="translate(285.253906 0)"/>
       <use xlink:href="#DejaVuSans-65" transform="translate(367.041016 0)"/>
       <use xlink:href="#DejaVuSans-72" transform="translate(428.564453 0)"/>
       <use xlink:href="#DejaVuSans-6d" transform="translate(467.927734 0)"/>
       <use xlink:href="#DejaVuSans-65" transform="translate(565.339844 0)"/>
       <use xlink:href="#DejaVuSans-6e" transform="translate(626.863281 0)"/>
       <use xlink:href="#DejaVuSans-74" transform="translate(690.242188 0)"/>
      </g>
     </g>
    </g>
    <g id="ytick_5">
     <g id="line2d_17">
      <g>
       <use xlink:href="#m764d4bc781" x="73.234141" y="120.371143" style="stroke: #000000; stroke-width: 0.8"/>
      </g>
     </g>
     <g id="text_12">
      <!-- Questioning -->
      <g transform="translate(21.091172 123.220557) scale(0.075 -0.075)">
       <defs>
        <path id="DejaVuSans-51" d="M 2522 4238 
Q 1834 4238 1429 3725 
Q 1025 3213 1025 2328 
Q 1025 1447 1429 934 
Q 1834 422 2522 422 
Q 3209 422 3611 934 
Q 4013 1447 4013 2328 
Q 4013 3213 3611 3725 
Q 3209 4238 2522 4238 
z
M 3406 84 
L 4238 -825 
L 3475 -825 
L 2784 -78 
Q 2681 -84 2626 -87 
Q 2572 -91 2522 -91 
Q 1538 -91 948 567 
Q 359 1225 359 2328 
Q 359 3434 948 4092 
Q 1538 4750 2522 4750 
Q 3503 4750 4090 4092 
Q 4678 3434 4678 2328 
Q 4678 1516 4351 937 
Q 4025 359 3406 84 
z
" transform="scale(0.015625)"/>
       </defs>
       <use xlink:href="#DejaVuSans-51"/>
       <use xlink:href="#DejaVuSans-75" transform="translate(78.710938 0)"/>
       <use xlink:href="#DejaVuSans-65" transform="translate(142.089844 0)"/>
       <use xlink:href="#DejaVuSans-73" transform="translate(203.613281 0)"/>
       <use xlink:href="#DejaVuSans-74" transform="translate(255.712891 0)"/>
       <use xlink:href="#DejaVuSans-69" transform="translate(294.921875 0)"/>
       <use xlink:href="#DejaVuSans-6f" transform="translate(322.705078 0)"/>
       <use xlink:href="#DejaVuSans-6e" transform="translate(383.886719 0)"/>
       <use xlink:href="#DejaVuSans-69" transform="translate(447.265625 0)"/>
       <use xlink:href="#DejaVuSans-6e" transform="translate(475.048828 0)"/>
       <use xlink:href="#DejaVuSans-67" transform="translate(538.427734 0)"/>
      </g>
     </g>
    </g>
    <g id="ytick_6">
     <g id="line2d_18">
      <g>
       <use xlink:href="#m764d4bc781" x="73.234141" y="101.426045" style="stroke: #000000; stroke-width: 0.8"/>
      </g>
     </g>
     <g id="text_13">
      <!-- Reappraisal -->
      <g transform="translate(22.277109 104.275459) scale(0.075 -0.075)">
       <defs>
        <path id="DejaVuSans-52" d="M 2841 2188 
Q 3044 2119 3236 1894 
Q 3428 1669 3622 1275 
L 4263 0 
L 3584 0 
L 2988 1197 
Q 2756 1666 2539 1819 
Q 2322 1972 1947 1972 
L 1259 1972 
L 1259 0 
L 628 0 
L 628 4666 
L 2053 4666 
Q 2853 4666 3247 4331 
Q 3641 3997 3641 3322 
Q 3641 2881 3436 2590 
Q 3231 2300 2841 2188 
z
M 1259 4147 
L 1259 2491 
L 2053 2491 
Q 2509 2491 2742 2702 
Q 2975 2913 2975 3322 
Q 2975 3731 2742 3939 
Q 2509 4147 2053 4147 
L 1259 4147 
z
" transform="scale(0.015625)"/>
       </defs>
       <use xlink:href="#DejaVuSans-52"/>
       <use xlink:href="#DejaVuSans-65" transform="translate(64.982422 0)"/>
       <use xlink:href="#DejaVuSans-61" transform="translate(126.505859 0)"/>
       <use xlink:href="#DejaVuSans-70" transform="translate(187.785156 0)"/>
       <use xlink:href="#DejaVuSans-70" transform="translate(251.261719 0)"/>
       <use xlink:href="#DejaVuSans-72" transform="translate(314.738281 0)"/>
       <use xlink:href="#DejaVuSans-61" transform="translate(355.851562 0)"/>
       <use xlink:href="#DejaVuSans-69" transform="translate(417.130859 0)"/>
       <use xlink:href="#DejaVuSans-73" transform="translate(444.914062 0)"/>
       <use xlink:href="#DejaVuSans-61" transform="translate(497.013672 0)"/>
       <use xlink:href="#DejaVuSans-6c" transform="translate(558.292969 0)"/>
      </g>
     </g>
    </g>
    <g id="ytick_7">
     <g id="line2d_19">
      <g>
       <use xlink:href="#m764d4bc781" x="73.234141" y="82.480947" style="stroke: #000000; stroke-width: 0.8"/>
      </g>
     </g>
     <g id="text_14">
      <!-- Paraphrasing -->
      <g transform="translate(17.075156 85.330361) scale(0.075 -0.075)">
       <defs>
        <path id="DejaVuSans-50" d="M 1259 4147 
L 1259 2394 
L 2053 2394 
Q 2494 2394 2734 2622 
Q 2975 2850 2975 3272 
Q 2975 3691 2734 3919 
Q 2494 4147 2053 4147 
L 1259 4147 
z
M 628 4666 
L 2053 4666 
Q 2838 4666 3239 4311 
Q 3641 3956 3641 3272 
Q 3641 2581 3239 2228 
Q 2838 1875 2053 1875 
L 1259 1875 
L 1259 0 
L 628 0 
L 628 4666 
z
" transform="scale(0.015625)"/>
        <path id="DejaVuSans-68" d="M 3513 2113 
L 3513 0 
L 2938 0 
L 2938 2094 
Q 2938 2591 2744 2837 
Q 2550 3084 2163 3084 
Q 1697 3084 1428 2787 
Q 1159 2491 1159 1978 
L 1159 0 
L 581 0 
L 581 4863 
L 1159 4863 
L 1159 2956 
Q 1366 3272 1645 3428 
Q 1925 3584 2291 3584 
Q 2894 3584 3203 3211 
Q 3513 2838 3513 2113 
z
" transform="scale(0.015625)"/>
       </defs>
       <use xlink:href="#DejaVuSans-50"/>
       <use xlink:href="#DejaVuSans-61" transform="translate(55.802734 0)"/>
       <use xlink:href="#DejaVuSans-72" transform="translate(117.082031 0)"/>
       <use xlink:href="#DejaVuSans-61" transform="translate(158.195312 0)"/>
       <use xlink:href="#DejaVuSans-70" transform="translate(219.474609 0)"/>
       <use xlink:href="#DejaVuSans-68" transform="translate(282.951172 0)"/>
       <use xlink:href="#DejaVuSans-72" transform="translate(346.330078 0)"/>
       <use xlink:href="#DejaVuSans-61" transform="translate(387.443359 0)"/>
       <use xlink:href="#DejaVuSans-73" transform="translate(448.722656 0)"/>
       <use xlink:href="#DejaVuSans-69" transform="translate(500.822266 0)"/>
       <use xlink:href="#DejaVuSans-6e" transform="translate(528.605469 0)"/>
       <use xlink:href="#DejaVuSans-67" transform="translate(591.984375 0)"/>
      </g>
     </g>
    </g>
    <g id="ytick_8">
     <g id="line2d_20">
      <g>
       <use xlink:href="#m764d4bc781" x="73.234141" y="63.535849" style="stroke: #000000; stroke-width: 0.8"/>
      </g>
     </g>
     <g id="text_15">
      <!-- Validation -->
      <g transform="translate(29.198203 66.385263) scale(0.075 -0.075)">
       <defs>
        <path id="DejaVuSans-56" d="M 1831 0 
L 50 4666 
L 709 4666 
L 2188 738 
L 3669 4666 
L 4325 4666 
L 2547 0 
L 1831 0 
z
" transform="scale(0.015625)"/>
       </defs>
       <use xlink:href="#DejaVuSans-56"/>
       <use xlink:href="#DejaVuSans-61" transform="translate(60.658203 0)"/>
       <use xlink:href="#DejaVuSans-6c" transform="translate(121.9375 0)"/>
       <use xlink:href="#DejaVuSans-69" transform="translate(149.720703 0)"/>
       <use xlink:href="#DejaVuSans-64" transform="translate(177.503906 0)"/>
       <use xlink:href="#DejaVuSans-61" transform="translate(240.980469 0)"/>
       <use xlink:href="#DejaVuSans-74" transform="translate(302.259766 0)"/>
       <use xlink:href="#DejaVuSans-69" transform="translate(341.46875 0)"/>
       <use xlink:href="#DejaVuSans-6f" transform="translate(369.251953 0)"/>
       <use xlink:href="#DejaVuSans-6e" transform="translate(430.433594 0)"/>
      </g>
     </g>
    </g>
    <g id="ytick_9">
     <g id="line2d_21">
      <g>
       <use xlink:href="#m764d4bc781" x="73.234141" y="44.590751" style="stroke: #000000; stroke-width: 0.8"/>
      </g>
     </g>
     <g id="text_16">
      <!-- Information -->
      <g transform="translate(22.819687 47.440165) scale(0.075 -0.075)">
       <defs>
        <path id="DejaVuSans-49" d="M 628 4666 
L 1259 4666 
L 1259 0 
L 628 0 
L 628 4666 
z
" transform="scale(0.015625)"/>
       </defs>
       <use xlink:href="#DejaVuSans-49"/>
       <use xlink:href="#DejaVuSans-6e" transform="translate(29.492188 0)"/>
       <use xlink:href="#DejaVuSans-66" transform="translate(92.871094 0)"/>
       <use xlink:href="#DejaVuSans-6f" transform="translate(128.076172 0)"/>
       <use xlink:href="#DejaVuSans-72" transform="translate(189.257812 0)"/>
       <use xlink:href="#DejaVuSans-6d" transform="translate(228.621094 0)"/>
       <use xlink:href="#DejaVuSans-61" transform="translate(326.033203 0)"/>
       <use xlink:href="#DejaVuSans-74" transform="translate(387.3125 0)"/>
       <use xlink:href="#DejaVuSans-69" transform="translate(426.521484 0)"/>
       <use xlink:href="#DejaVuSans-6f" transform="translate(454.304688 0)"/>
       <use xlink:href="#DejaVuSans-6e" transform="translate(515.486328 0)"/>
      </g>
     </g>
    </g>
    <g id="ytick_10">
     <g id="line2d_22">
      <g>
       <use xlink:href="#m764d4bc781" x="73.234141" y="25.645653" style="stroke: #000000; stroke-width: 0.8"/>
      </g>
     </g>
     <g id="text_17">
      <!-- Advice -->
      <g transform="translate(41.212266 28.495067) scale(0.075 -0.075)">
       <defs>
        <path id="DejaVuSans-76" d="M 191 3500 
L 800 3500 
L 1894 563 
L 2988 3500 
L 3597 3500 
L 2284 0 
L 1503 0 
L 191 3500 
z
" transform="scale(0.015625)"/>
       </defs>
       <use xlink:href="#DejaVuSans-41"/>
       <use xlink:href="#DejaVuSans-64" transform="translate(66.658203 0)"/>
       <use xlink:href="#DejaVuSans-76" transform="translate(130.134766 0)"/>
       <use xlink:href="#DejaVuSans-69" transform="translate(189.314453 0)"/>
       <use xlink:href="#DejaVuSans-63" transform="translate(217.097656 0)"/>
       <use xlink:href="#DejaVuSans-65" transform="translate(272.078125 0)"/>
      </g>
     </g>
    </g>
   </g>
   <g id="LineCollection_1">
    <path d="M 80.691241 196.151535 
L 91.074283 196.151535 
" clip-path="url(#p30c445eeda)" style="fill: none; stroke: #ececec; stroke-width: 1.2"/>
   </g>
   <g id="LineCollection_2">
    <path d="M 105.312895 177.206437 
L 133.021772 177.206437 
" clip-path="url(#p30c445eeda)" style="fill: none; stroke: #ececec; stroke-width: 1.2"/>
   </g>
   <g id="LineCollection_3">
    <path d="M 139.653075 158.261339 
L 150.465283 158.261339 
" clip-path="url(#p30c445eeda)" style="fill: none; stroke: #ececec; stroke-width: 1.2"/>
   </g>
   <g id="LineCollection_4">
    <path d="M 117.876375 139.316241 
L 169.426261 139.316241 
" clip-path="url(#p30c445eeda)" style="fill: none; stroke: #ececec; stroke-width: 1.2"/>
   </g>
   <g id="LineCollection_5">
    <path d="M 143.759847 120.371143 
L 189.906998 120.371143 
" clip-path="url(#p30c445eeda)" style="fill: none; stroke: #ececec; stroke-width: 1.2"/>
   </g>
   <g id="LineCollection_6">
    <path d="M 108.663156 101.426045 
L 207.753366 101.426045 
" clip-path="url(#p30c445eeda)" style="fill: none; stroke: #ececec; stroke-width: 1.2"/>
   </g>
   <g id="LineCollection_7">
    <path d="M 168.967863 82.480947 
L 228.25391 82.480947 
" clip-path="url(#p30c445eeda)" style="fill: none; stroke: #ececec; stroke-width: 1.2"/>
   </g>
   <g id="LineCollection_8">
    <path d="M 138.693928 63.535849 
L 215.878447 63.535849 
" clip-path="url(#p30c445eeda)" style="fill: none; stroke: #ececec; stroke-width: 1.2"/>
   </g>
   <g id="LineCollection_9">
    <path d="M 87.724022 44.590751 
L 290.646872 44.590751 
" clip-path="url(#p30c445eeda)" style="fill: none; stroke: #ececec; stroke-width: 1.2"/>
   </g>
   <g id="LineCollection_10">
    <path d="M 142.165771 25.645653 
L 312.038744 25.645653 
" clip-path="url(#p30c445eeda)" style="fill: none; stroke: #ececec; stroke-width: 1.2"/>
   </g>
   <g id="LineCollection_11">
    <path d="M 80.691241 196.151535 
L 86.211 196.151535 
" clip-path="url(#p30c445eeda)" style="fill: none; stroke: #b2dfbc; stroke-width: 7; stroke-linecap: round"/>
   </g>
   <g id="LineCollection_12">
    <path d="M 126.535721 177.206437 
L 133.021772 177.206437 
" clip-path="url(#p30c445eeda)" style="fill: none; stroke: #b2dfbc; stroke-width: 7; stroke-linecap: round"/>
   </g>
   <g id="LineCollection_13">
    <path d="M 140.922932 158.261339 
L 150.465283 158.261339 
" clip-path="url(#p30c445eeda)" style="fill: none; stroke: #b2dfbc; stroke-width: 7; stroke-linecap: round"/>
   </g>
   <g id="LineCollection_14">
    <path d="M 127.143631 139.316241 
L 169.426261 139.316241 
" clip-path="url(#p30c445eeda)" style="fill: none; stroke: #b2dfbc; stroke-width: 7; stroke-linecap: round"/>
   </g>
   <g id="LineCollection_15">
    <path d="M 143.759847 120.371143 
L 167.908793 120.371143 
" clip-path="url(#p30c445eeda)" style="fill: none; stroke: #b2dfbc; stroke-width: 7; stroke-linecap: round"/>
   </g>
   <g id="LineCollection_16">
    <path d="M 139.707112 101.426045 
L 207.753366 101.426045 
" clip-path="url(#p30c445eeda)" style="fill: none; stroke: #b2dfbc; stroke-width: 7; stroke-linecap: round"/>
   </g>
   <g id="LineCollection_17">
    <path d="M 171.115813 82.480947 
L 228.25391 82.480947 
" clip-path="url(#p30c445eeda)" style="fill: none; stroke: #b2dfbc; stroke-width: 7; stroke-linecap: round"/>
   </g>
   <g id="LineCollection_18">
    <path d="M 138.693928 63.535849 
L 215.878447 63.535849 
" clip-path="url(#p30c445eeda)" style="fill: none; stroke: #b2dfbc; stroke-width: 7; stroke-linecap: round"/>
   </g>
   <g id="LineCollection_19">
    <path d="M 245.68615 44.590751 
L 290.646872 44.590751 
" clip-path="url(#p30c445eeda)" style="fill: none; stroke: #b2dfbc; stroke-width: 7; stroke-linecap: round"/>
   </g>
   <g id="LineCollection_20">
    <path d="M 246.901971 25.645653 
L 312.038744 25.645653 
" clip-path="url(#p30c445eeda)" style="fill: none; stroke: #b2dfbc; stroke-width: 7; stroke-linecap: round"/>
   </g>
   <g id="patch_3">
    <path d="M 73.234141 207.518594 
L 73.234141 14.278594 
" style="fill: none; stroke: #b8b8b8; stroke-width: 0.6; stroke-linejoin: miter; stroke-linecap: square"/>
   </g>
   <g id="patch_4">
    <path d="M 73.234141 207.518594 
L 342.343897 207.518594 
" style="fill: none; stroke: #b8b8b8; stroke-width: 0.6; stroke-linejoin: miter; stroke-linecap: square"/>
   </g>
   <g id="PathCollection_1">
    <defs>
     <path id="m2eac222288" d="M 0 3.24037 
C 0.859356 3.24037 1.683631 2.898944 2.291288 2.291288 
C 2.898944 1.683631 3.24037 0.859356 3.24037 0 
C 3.24037 -0.859356 2.898944 -1.683631 2.291288 -2.291288 
C 1.683631 -2.898944 0.859356 -3.24037 0 -3.24037 
C -0.859356 -3.24037 -1.683631 -2.898944 -2.291288 -2.291288 
C -2.898944 -1.683631 -3.24037 -0.859356 -3.24037 0 
C -3.24037 0.859356 -2.898944 1.683631 -2.291288 2.291288 
C -1.683631 2.898944 -0.859356 3.24037 0 3.24037 
z
" style="stroke: #ffffff; stroke-width: 0.6"/>
    </defs>
    <g clip-path="url(#p30c445eeda)">
     <use xlink:href="#m2eac222288" x="85.641427" y="196.151535" style="fill: #2d8e4e; stroke: #ffffff; stroke-width: 0.6"/>
    </g>
   </g>
   <g id="PathCollection_2">
    <g clip-path="url(#p30c445eeda)">
     <use xlink:href="#m2eac222288" x="127.533844" y="177.206437" style="fill: #2d8e4e; stroke: #ffffff; stroke-width: 0.6"/>
    </g>
   </g>
   <g id="PathCollection_3">
    <g clip-path="url(#p30c445eeda)">
     <use xlink:href="#m2eac222288" x="148.034388" y="158.261339" style="fill: #2d8e4e; stroke: #ffffff; stroke-width: 0.6"/>
    </g>
   </g>
   <g id="PathCollection_4">
    <g clip-path="url(#p30c445eeda)">
     <use xlink:href="#m2eac222288" x="165.728354" y="139.316241" style="fill: #2d8e4e; stroke: #ffffff; stroke-width: 0.6"/>
    </g>
   </g>
   <g id="PathCollection_5">
    <g clip-path="url(#p30c445eeda)">
     <use xlink:href="#m2eac222288" x="166.752277" y="120.371143" style="fill: #2d8e4e; stroke: #ffffff; stroke-width: 0.6"/>
    </g>
   </g>
   <g id="PathCollection_6">
    <g clip-path="url(#p30c445eeda)">
     <use xlink:href="#m2eac222288" x="185.352303" y="101.426045" style="fill: #2d8e4e; stroke: #ffffff; stroke-width: 0.6"/>
    </g>
   </g>
   <g id="PathCollection_7">
    <g clip-path="url(#p30c445eeda)">
     <use xlink:href="#m2eac222288" x="209.33713" y="82.480947" style="fill: #2d8e4e; stroke: #ffffff; stroke-width: 0.6"/>
    </g>
   </g>
   <g id="PathCollection_8">
    <g clip-path="url(#p30c445eeda)">
     <use xlink:href="#m2eac222288" x="214.88399" y="63.535849" style="fill: #2d8e4e; stroke: #ffffff; stroke-width: 0.6"/>
    </g>
   </g>
   <g id="PathCollection_9">
    <g clip-path="url(#p30c445eeda)">
     <use xlink:href="#m2eac222288" x="287.832927" y="44.590751" style="fill: #2d8e4e; stroke: #ffffff; stroke-width: 0.6"/>
    </g>
   </g>
   <g id="PathCollection_10">
    <g clip-path="url(#p30c445eeda)">
     <use xlink:href="#m2eac222288" x="303.095998" y="25.645653" style="fill: #2d8e4e; stroke: #ffffff; stroke-width: 0.6"/>
    </g>
   </g>
   <g id="text_18">
    <!-- Tactic Prevalence -->
    <g transform="translate(163.608159 8.278594) scale(0.09 -0.09)">
     <defs>
      <path id="DejaVuSans-Bold-54" d="M 31 4666 
L 4331 4666 
L 4331 3756 
L 2784 3756 
L 2784 0 
L 1581 0 
L 1581 3756 
L 31 3756 
L 31 4666 
z
" transform="scale(0.015625)"/>
      <path id="DejaVuSans-Bold-61" d="M 2106 1575 
Q 1756 1575 1579 1456 
Q 1403 1338 1403 1106 
Q 1403 894 1545 773 
Q 1688 653 1941 653 
Q 2256 653 2472 879 
Q 2688 1106 2688 1447 
L 2688 1575 
L 2106 1575 
z
M 3816 1997 
L 3816 0 
L 2688 0 
L 2688 519 
Q 2463 200 2181 54 
Q 1900 -91 1497 -91 
Q 953 -91 614 226 
Q 275 544 275 1050 
Q 275 1666 698 1953 
Q 1122 2241 2028 2241 
L 2688 2241 
L 2688 2328 
Q 2688 2594 2478 2717 
Q 2269 2841 1825 2841 
Q 1466 2841 1156 2769 
Q 847 2697 581 2553 
L 581 3406 
Q 941 3494 1303 3539 
Q 1666 3584 2028 3584 
Q 2975 3584 3395 3211 
Q 3816 2838 3816 1997 
z
" transform="scale(0.015625)"/>
      <path id="DejaVuSans-Bold-63" d="M 3366 3391 
L 3366 2478 
Q 3138 2634 2908 2709 
Q 2678 2784 2431 2784 
Q 1963 2784 1702 2511 
Q 1441 2238 1441 1747 
Q 1441 1256 1702 982 
Q 1963 709 2431 709 
Q 2694 709 2930 787 
Q 3166 866 3366 1019 
L 3366 103 
Q 3103 6 2833 -42 
Q 2563 -91 2291 -91 
Q 1344 -91 809 395 
Q 275 881 275 1747 
Q 275 2613 809 3098 
Q 1344 3584 2291 3584 
Q 2566 3584 2833 3536 
Q 3100 3488 3366 3391 
z
" transform="scale(0.015625)"/>
      <path id="DejaVuSans-Bold-74" d="M 1759 4494 
L 1759 3500 
L 2913 3500 
L 2913 2700 
L 1759 2700 
L 1759 1216 
Q 1759 972 1856 886 
Q 1953 800 2241 800 
L 2816 800 
L 2816 0 
L 1856 0 
Q 1194 0 917 276 
Q 641 553 641 1216 
L 641 2700 
L 84 2700 
L 84 3500 
L 641 3500 
L 641 4494 
L 1759 4494 
z
" transform="scale(0.015625)"/>
      <path id="DejaVuSans-Bold-69" d="M 538 3500 
L 1656 3500 
L 1656 0 
L 538 0 
L 538 3500 
z
M 538 4863 
L 1656 4863 
L 1656 3950 
L 538 3950 
L 538 4863 
z
" transform="scale(0.015625)"/>
      <path id="DejaVuSans-Bold-20" transform="scale(0.015625)"/>
      <path id="DejaVuSans-Bold-50" d="M 588 4666 
L 2584 4666 
Q 3475 4666 3951 4270 
Q 4428 3875 4428 3144 
Q 4428 2409 3951 2014 
Q 3475 1619 2584 1619 
L 1791 1619 
L 1791 0 
L 588 0 
L 588 4666 
z
M 1791 3794 
L 1791 2491 
L 2456 2491 
Q 2806 2491 2997 2661 
Q 3188 2831 3188 3144 
Q 3188 3456 2997 3625 
Q 2806 3794 2456 3794 
L 1791 3794 
z
" transform="scale(0.015625)"/>
      <path id="DejaVuSans-Bold-72" d="M 3138 2547 
Q 2991 2616 2845 2648 
Q 2700 2681 2553 2681 
Q 2122 2681 1889 2404 
Q 1656 2128 1656 1613 
L 1656 0 
L 538 0 
L 538 3500 
L 1656 3500 
L 1656 2925 
Q 1872 3269 2151 3426 
Q 2431 3584 2822 3584 
Q 2878 3584 2943 3579 
Q 3009 3575 3134 3559 
L 3138 2547 
z
" transform="scale(0.015625)"/>
      <path id="DejaVuSans-Bold-65" d="M 4031 1759 
L 4031 1441 
L 1416 1441 
Q 1456 1047 1700 850 
Q 1944 653 2381 653 
Q 2734 653 3104 758 
Q 3475 863 3866 1075 
L 3866 213 
Q 3469 63 3072 -14 
Q 2675 -91 2278 -91 
Q 1328 -91 801 392 
Q 275 875 275 1747 
Q 275 2603 792 3093 
Q 1309 3584 2216 3584 
Q 3041 3584 3536 3087 
Q 4031 2591 4031 1759 
z
M 2881 2131 
Q 2881 2450 2695 2645 
Q 2509 2841 2209 2841 
Q 1884 2841 1681 2658 
Q 1478 2475 1428 2131 
L 2881 2131 
z
" transform="scale(0.015625)"/>
      <path id="DejaVuSans-Bold-76" d="M 97 3500 
L 1216 3500 
L 2088 1081 
L 2956 3500 
L 4078 3500 
L 2700 0 
L 1472 0 
L 97 3500 
z
" transform="scale(0.015625)"/>
      <path id="DejaVuSans-Bold-6c" d="M 538 4863 
L 1656 4863 
L 1656 0 
L 538 0 
L 538 4863 
z
" transform="scale(0.015625)"/>
      <path id="DejaVuSans-Bold-6e" d="M 4056 2131 
L 4056 0 
L 2931 0 
L 2931 347 
L 2931 1631 
Q 2931 2084 2911 2256 
Q 2891 2428 2841 2509 
Q 2775 2619 2662 2680 
Q 2550 2741 2406 2741 
Q 2056 2741 1856 2470 
Q 1656 2200 1656 1722 
L 1656 0 
L 538 0 
L 538 3500 
L 1656 3500 
L 1656 2988 
Q 1909 3294 2193 3439 
Q 2478 3584 2822 3584 
Q 3428 3584 3742 3212 
Q 4056 2841 4056 2131 
z
" transform="scale(0.015625)"/>
     </defs>
     <use xlink:href="#DejaVuSans-Bold-54"/>
     <use xlink:href="#DejaVuSans-Bold-61" transform="translate(55.337891 0)"/>
     <use xlink:href="#DejaVuSans-Bold-63" transform="translate(122.818359 0)"/>
     <use xlink:href="#DejaVuSans-Bold-74" transform="translate(182.095703 0)"/>
     <use xlink:href="#DejaVuSans-Bold-69" transform="translate(229.898438 0)"/>
     <use xlink:href="#DejaVuSans-Bold-63" transform="translate(264.175781 0)"/>
     <use xlink:href="#DejaVuSans-Bold-20" transform="translate(323.453125 0)"/>
     <use xlink:href="#DejaVuSans-Bold-50" transform="translate(358.267578 0)"/>
     <use xlink:href="#DejaVuSans-Bold-72" transform="translate(431.558594 0)"/>
     <use xlink:href="#DejaVuSans-Bold-65" transform="translate(480.875 0)"/>
     <use xlink:href="#DejaVuSans-Bold-76" transform="translate(548.697266 0)"/>
     <use xlink:href="#DejaVuSans-Bold-61" transform="translate(613.882812 0)"/>
     <use xlink:href="#DejaVuSans-Bold-6c" transform="translate(681.363281 0)"/>
     <use xlink:href="#DejaVuSans-Bold-65" transform="translate(715.640625 0)"/>
     <use xlink:href="#DejaVuSans-Bold-6e" transform="translate(783.462891 0)"/>
     <use xlink:href="#DejaVuSans-Bold-63" transform="translate(854.654297 0)"/>
     <use xlink:href="#DejaVuSans-Bold-65" transform="translate(913.931641 0)"/>
    </g>
   </g>
   <g id="PathCollection_11">
    <defs>
     <path id="m693dbb5d7d" d="M -0 5.244044 
L 5.244044 0 
L 0 -5.244044 
L -5.244044 -0 
z
" style="stroke: #ffffff; stroke-width: 0.6"/>
    </defs>
    <g clip-path="url(#p30c445eeda)">
     <use xlink:href="#m693dbb5d7d" x="91.074283" y="196.151535" style="fill: #d66b4b; stroke: #ffffff; stroke-width: 0.6"/>
     <use xlink:href="#m693dbb5d7d" x="105.312895" y="177.206437" style="fill: #d66b4b; stroke: #ffffff; stroke-width: 0.6"/>
     <use xlink:href="#m693dbb5d7d" x="139.653075" y="158.261339" style="fill: #d66b4b; stroke: #ffffff; stroke-width: 0.6"/>
     <use xlink:href="#m693dbb5d7d" x="117.876375" y="139.316241" style="fill: #d66b4b; stroke: #ffffff; stroke-width: 0.6"/>
     <use xlink:href="#m693dbb5d7d" x="189.906998" y="120.371143" style="fill: #d66b4b; stroke: #ffffff; stroke-width: 0.6"/>
     <use xlink:href="#m693dbb5d7d" x="108.663156" y="101.426045" style="fill: #d66b4b; stroke: #ffffff; stroke-width: 0.6"/>
     <use xlink:href="#m693dbb5d7d" x="168.967863" y="82.480947" style="fill: #d66b4b; stroke: #ffffff; stroke-width: 0.6"/>
     <use xlink:href="#m693dbb5d7d" x="153.891687" y="63.535849" style="fill: #d66b4b; stroke: #ffffff; stroke-width: 0.6"/>
     <use xlink:href="#m693dbb5d7d" x="87.724022" y="44.590751" style="fill: #d66b4b; stroke: #ffffff; stroke-width: 0.6"/>
     <use xlink:href="#m693dbb5d7d" x="142.165771" y="25.645653" style="fill: #d66b4b; stroke: #ffffff; stroke-width: 0.6"/>
    </g>
   </g>
   <g id="legend_1">
    <g id="patch_5">
     <path d="M 259.604834 204.518594 
L 338.143897 204.518594 
Q 339.343897 204.518594 339.343897 203.318594 
L 339.343897 179.897969 
Q 339.343897 178.697969 338.143897 178.697969 
L 259.604834 178.697969 
Q 258.404834 178.697969 258.404834 179.897969 
L 258.404834 203.318594 
Q 258.404834 204.518594 259.604834 204.518594 
z
" style="fill: #ffffff; opacity: 0.9; stroke: #cccccc; stroke-linejoin: miter"/>
    </g>
    <g id="line2d_23">
     <defs>
      <path id="m15e252ec00" d="M -0 4.242641 
L 4.242641 0 
L 0 -4.242641 
L -4.242641 -0 
z
" style="stroke: #ffffff; stroke-width: 0.5; stroke-linejoin: miter"/>
     </defs>
     <g>
      <use xlink:href="#m15e252ec00" x="264.404834" y="183.557031" style="fill: #d66b4b; stroke: #ffffff; stroke-width: 0.5; stroke-linejoin: miter"/>
     </g>
    </g>
    <g id="text_19">
     <!-- Human -->
     <g transform="translate(271.604834 185.657031) scale(0.06 -0.06)">
      <defs>
       <path id="DejaVuSans-48" d="M 628 4666 
L 1259 4666 
L 1259 2753 
L 3553 2753 
L 3553 4666 
L 4184 4666 
L 4184 0 
L 3553 0 
L 3553 2222 
L 1259 2222 
L 1259 0 
L 628 0 
L 628 4666 
z
" transform="scale(0.015625)"/>
      </defs>
      <use xlink:href="#DejaVuSans-48"/>
      <use xlink:href="#DejaVuSans-75" transform="translate(75.195312 0)"/>
      <use xlink:href="#DejaVuSans-6d" transform="translate(138.574219 0)"/>
      <use xlink:href="#DejaVuSans-61" transform="translate(235.986328 0)"/>
      <use xlink:href="#DejaVuSans-6e" transform="translate(297.265625 0)"/>
     </g>
    </g>
    <g id="line2d_24">
     <defs>
      <path id="mcde3e924cf" d="M 0 2.75 
C 0.729309 2.75 1.428845 2.460243 1.944544 1.944544 
C 2.460243 1.428845 2.75 0.729309 2.75 0 
C 2.75 -0.729309 2.460243 -1.428845 1.944544 -1.944544 
C 1.428845 -2.460243 0.729309 -2.75 0 -2.75 
C -0.729309 -2.75 -1.428845 -2.460243 -1.944544 -1.944544 
C -2.460243 -1.428845 -2.75 -0.729309 -2.75 0 
C -2.75 0.729309 -2.460243 1.428845 -1.944544 1.944544 
C -1.428845 2.460243 -0.729309 2.75 0 2.75 
z
" style="stroke: #ffffff; stroke-width: 0.5"/>
     </defs>
     <g>
      <use xlink:href="#mcde3e924cf" x="264.404834" y="191.163906" style="fill: #2d8e4e; stroke: #ffffff; stroke-width: 0.5"/>
     </g>
    </g>
    <g id="text_20">
     <!-- LLM median -->
     <g transform="translate(271.604834 193.263906) scale(0.06 -0.06)">
      <defs>
       <path id="DejaVuSans-4c" d="M 628 4666 
L 1259 4666 
L 1259 531 
L 3531 531 
L 3531 0 
L 628 0 
L 628 4666 
z
" transform="scale(0.015625)"/>
       <path id="DejaVuSans-4d" d="M 628 4666 
L 1569 4666 
L 2759 1491 
L 3956 4666 
L 4897 4666 
L 4897 0 
L 4281 0 
L 4281 4097 
L 3078 897 
L 2444 897 
L 1241 4097 
L 1241 0 
L 628 0 
L 628 4666 
z
" transform="scale(0.015625)"/>
      </defs>
      <use xlink:href="#DejaVuSans-4c"/>
      <use xlink:href="#DejaVuSans-4c" transform="translate(55.712891 0)"/>
      <use xlink:href="#DejaVuSans-4d" transform="translate(111.425781 0)"/>
      <use xlink:href="#DejaVuSans-20" transform="translate(197.705078 0)"/>
      <use xlink:href="#DejaVuSans-6d" transform="translate(229.492188 0)"/>
      <use xlink:href="#DejaVuSans-65" transform="translate(326.904297 0)"/>
      <use xlink:href="#DejaVuSans-64" transform="translate(388.427734 0)"/>
      <use xlink:href="#DejaVuSans-69" transform="translate(451.904297 0)"/>
      <use xlink:href="#DejaVuSans-61" transform="translate(479.6875 0)"/>
      <use xlink:href="#DejaVuSans-6e" transform="translate(540.966797 0)"/>
     </g>
    </g>
    <g id="line2d_25">
     <path d="M 260.804834 198.770781 
L 264.404834 198.770781 
L 268.004834 198.770781 
" style="fill: none; stroke: #b2dfbc; stroke-width: 5; stroke-linecap: round"/>
    </g>
    <g id="text_21">
     <!-- LLM range (3 models) -->
     <g transform="translate(271.604834 200.870781) scale(0.06 -0.06)">
      <defs>
       <path id="DejaVuSans-28" d="M 1984 4856 
Q 1566 4138 1362 3434 
Q 1159 2731 1159 2009 
Q 1159 1288 1364 580 
Q 1569 -128 1984 -844 
L 1484 -844 
Q 1016 -109 783 600 
Q 550 1309 550 2009 
Q 550 2706 781 3412 
Q 1013 4119 1484 4856 
L 1984 4856 
z
" transform="scale(0.015625)"/>
       <path id="DejaVuSans-33" d="M 2597 2516 
Q 3050 2419 3304 2112 
Q 3559 1806 3559 1356 
Q 3559 666 3084 287 
Q 2609 -91 1734 -91 
Q 1441 -91 1130 -33 
Q 819 25 488 141 
L 488 750 
Q 750 597 1062 519 
Q 1375 441 1716 441 
Q 2309 441 2620 675 
Q 2931 909 2931 1356 
Q 2931 1769 2642 2001 
Q 2353 2234 1838 2234 
L 1294 2234 
L 1294 2753 
L 1863 2753 
Q 2328 2753 2575 2939 
Q 2822 3125 2822 3475 
Q 2822 3834 2567 4026 
Q 2313 4219 1838 4219 
Q 1578 4219 1281 4162 
Q 984 4106 628 3988 
L 628 4550 
Q 988 4650 1302 4700 
Q 1616 4750 1894 4750 
Q 2613 4750 3031 4423 
Q 3450 4097 3450 3541 
Q 3450 3153 3228 2886 
Q 3006 2619 2597 2516 
z
" transform="scale(0.015625)"/>
       <path id="DejaVuSans-29" d="M 513 4856 
L 1013 4856 
Q 1481 4119 1714 3412 
Q 1947 2706 1947 2009 
Q 1947 1309 1714 600 
Q 1481 -109 1013 -844 
L 513 -844 
Q 928 -128 1133 580 
Q 1338 1288 1338 2009 
Q 1338 2731 1133 3434 
Q 928 4138 513 4856 
z
" transform="scale(0.015625)"/>
      </defs>
      <use xlink:href="#DejaVuSans-4c"/>
      <use xlink:href="#DejaVuSans-4c" transform="translate(55.712891 0)"/>
      <use xlink:href="#DejaVuSans-4d" transform="translate(111.425781 0)"/>
      <use xlink:href="#DejaVuSans-20" transform="translate(197.705078 0)"/>
      <use xlink:href="#DejaVuSans-72" transform="translate(229.492188 0)"/>
      <use xlink:href="#DejaVuSans-61" transform="translate(270.605469 0)"/>
      <use xlink:href="#DejaVuSans-6e" transform="translate(331.884766 0)"/>
      <use xlink:href="#DejaVuSans-67" transform="translate(395.263672 0)"/>
      <use xlink:href="#DejaVuSans-65" transform="translate(458.740234 0)"/>
      <use xlink:href="#DejaVuSans-20" transform="translate(520.263672 0)"/>
      <use xlink:href="#DejaVuSans-28" transform="translate(552.050781 0)"/>
      <use xlink:href="#DejaVuSans-33" transform="translate(591.064453 0)"/>
      <use xlink:href="#DejaVuSans-20" transform="translate(654.6875 0)"/>
      <use xlink:href="#DejaVuSans-6d" transform="translate(686.474609 0)"/>
      <use xlink:href="#DejaVuSans-6f" transform="translate(783.886719 0)"/>
      <use xlink:href="#DejaVuSans-64" transform="translate(845.068359 0)"/>
      <use xlink:href="#DejaVuSans-65" transform="translate(908.544922 0)"/>
      <use xlink:href="#DejaVuSans-6c" transform="translate(970.068359 0)"/>
      <use xlink:href="#DejaVuSans-73" transform="translate(997.851562 0)"/>
      <use xlink:href="#DejaVuSans-29" transform="translate(1049.951172 0)"/>
     </g>
    </g>
   </g>
  </g>
  <g id="axes_2">
   <g id="patch_6">
    <path d="M 355.799385 207.518594 
L 624.909141 207.518594 
L 624.909141 14.278594 
L 355.799385 14.278594 
z
" style="fill: #ffffff"/>
   </g>
   <g id="matplotlib.axis_3">
    <g id="xtick_7">
     <g id="line2d_26">
      <path d="M 361.076046 207.518594 
L 361.076046 14.278594 
" clip-path="url(#p68dd2a672b)" style="fill: none; stroke: #ececec; stroke-width: 0.7; stroke-linecap: square"/>
     </g>
     <g id="line2d_27">
      <g>
       <use xlink:href="#mba4c54877e" x="361.076046" y="207.518594" style="stroke: #000000; stroke-width: 0.8"/>
      </g>
     </g>
     <g id="text_22">
      <!-- 0 -->
      <g transform="translate(358.690109 220.217422) scale(0.075 -0.075)">
       <use xlink:href="#DejaVuSans-30"/>
      </g>
     </g>
    </g>
    <g id="xtick_8">
     <g id="line2d_28">
      <path d="M 413.842665 207.518594 
L 413.842665 14.278594 
" clip-path="url(#p68dd2a672b)" style="fill: none; stroke: #ececec; stroke-width: 0.7; stroke-linecap: square"/>
     </g>
     <g id="line2d_29">
      <g>
       <use xlink:href="#mba4c54877e" x="413.842665" y="207.518594" style="stroke: #000000; stroke-width: 0.8"/>
      </g>
     </g>
     <g id="text_23">
      <!-- 20 -->
      <g transform="translate(409.07079 220.217422) scale(0.075 -0.075)">
       <use xlink:href="#DejaVuSans-32"/>
       <use xlink:href="#DejaVuSans-30" transform="translate(63.623047 0)"/>
      </g>
     </g>
    </g>
    <g id="xtick_9">
     <g id="line2d_30">
      <path d="M 466.609284 207.518594 
L 466.609284 14.278594 
" clip-path="url(#p68dd2a672b)" style="fill: none; stroke: #ececec; stroke-width: 0.7; stroke-linecap: square"/>
     </g>
     <g id="line2d_31">
      <g>
       <use xlink:href="#mba4c54877e" x="466.609284" y="207.518594" style="stroke: #000000; stroke-width: 0.8"/>
      </g>
     </g>
     <g id="text_24">
      <!-- 40 -->
      <g transform="translate(461.837409 220.217422) scale(0.075 -0.075)">
       <use xlink:href="#DejaVuSans-34"/>
       <use xlink:href="#DejaVuSans-30" transform="translate(63.623047 0)"/>
      </g>
     </g>
    </g>
    <g id="xtick_10">
     <g id="line2d_32">
      <path d="M 519.375903 207.518594 
L 519.375903 14.278594 
" clip-path="url(#p68dd2a672b)" style="fill: none; stroke: #ececec; stroke-width: 0.7; stroke-linecap: square"/>
     </g>
     <g id="line2d_33">
      <g>
       <use xlink:href="#mba4c54877e" x="519.375903" y="207.518594" style="stroke: #000000; stroke-width: 0.8"/>
      </g>
     </g>
     <g id="text_25">
      <!-- 60 -->
      <g transform="translate(514.604028 220.217422) scale(0.075 -0.075)">
       <use xlink:href="#DejaVuSans-36"/>
       <use xlink:href="#DejaVuSans-30" transform="translate(63.623047 0)"/>
      </g>
     </g>
    </g>
    <g id="xtick_11">
     <g id="line2d_34">
      <path d="M 572.142522 207.518594 
L 572.142522 14.278594 
" clip-path="url(#p68dd2a672b)" style="fill: none; stroke: #ececec; stroke-width: 0.7; stroke-linecap: square"/>
     </g>
     <g id="line2d_35">
      <g>
       <use xlink:href="#mba4c54877e" x="572.142522" y="207.518594" style="stroke: #000000; stroke-width: 0.8"/>
      </g>
     </g>
     <g id="text_26">
      <!-- 80 -->
      <g transform="translate(567.370647 220.217422) scale(0.075 -0.075)">
       <use xlink:href="#DejaVuSans-38"/>
       <use xlink:href="#DejaVuSans-30" transform="translate(63.623047 0)"/>
      </g>
     </g>
    </g>
    <g id="xtick_12">
     <g id="line2d_36">
      <path d="M 624.909141 207.518594 
L 624.909141 14.278594 
" clip-path="url(#p68dd2a672b)" style="fill: none; stroke: #ececec; stroke-width: 0.7; stroke-linecap: square"/>
     </g>
     <g id="line2d_37">
      <g>
       <use xlink:href="#mba4c54877e" x="624.909141" y="207.518594" style="stroke: #000000; stroke-width: 0.8"/>
      </g>
     </g>
     <g id="text_27">
      <!-- 100 -->
      <g transform="translate(617.751328 220.217422) scale(0.075 -0.075)">
       <use xlink:href="#DejaVuSans-31"/>
       <use xlink:href="#DejaVuSans-30" transform="translate(63.623047 0)"/>
       <use xlink:href="#DejaVuSans-30" transform="translate(127.246094 0)"/>
      </g>
     </g>
    </g>
    <g id="text_28">
     <!-- Conditional probability of tactic in turn $t$  [%] -->
     <g transform="translate(400.714263 231.857187) scale(0.08 -0.08)">
      <defs>
       <path id="DejaVuSans-43" d="M 4122 4306 
L 4122 3641 
Q 3803 3938 3442 4084 
Q 3081 4231 2675 4231 
Q 1875 4231 1450 3742 
Q 1025 3253 1025 2328 
Q 1025 1406 1450 917 
Q 1875 428 2675 428 
Q 3081 428 3442 575 
Q 3803 722 4122 1019 
L 4122 359 
Q 3791 134 3420 21 
Q 3050 -91 2638 -91 
Q 1578 -91 968 557 
Q 359 1206 359 2328 
Q 359 3453 968 4101 
Q 1578 4750 2638 4750 
Q 3056 4750 3426 4639 
Q 3797 4528 4122 4306 
z
" transform="scale(0.015625)"/>
       <path id="DejaVuSans-62" d="M 3116 1747 
Q 3116 2381 2855 2742 
Q 2594 3103 2138 3103 
Q 1681 3103 1420 2742 
Q 1159 2381 1159 1747 
Q 1159 1113 1420 752 
Q 1681 391 2138 391 
Q 2594 391 2855 752 
Q 3116 1113 3116 1747 
z
M 1159 2969 
Q 1341 3281 1617 3432 
Q 1894 3584 2278 3584 
Q 2916 3584 3314 3078 
Q 3713 2572 3713 1747 
Q 3713 922 3314 415 
Q 2916 -91 2278 -91 
Q 1894 -91 1617 61 
Q 1341 213 1159 525 
L 1159 0 
L 581 0 
L 581 4863 
L 1159 4863 
L 1159 2969 
z
" transform="scale(0.015625)"/>
       <path id="DejaVuSans-79" d="M 2059 -325 
Q 1816 -950 1584 -1140 
Q 1353 -1331 966 -1331 
L 506 -1331 
L 506 -850 
L 844 -850 
Q 1081 -850 1212 -737 
Q 1344 -625 1503 -206 
L 1606 56 
L 191 3500 
L 800 3500 
L 1894 763 
L 2988 3500 
L 3597 3500 
L 2059 -325 
z
" transform="scale(0.015625)"/>
       <path id="DejaVuSans-Oblique-74" d="M 2706 3500 
L 2619 3053 
L 1472 3053 
L 1100 1153 
Q 1081 1047 1072 975 
Q 1063 903 1063 863 
Q 1063 663 1183 572 
Q 1303 481 1569 481 
L 2150 481 
L 2053 0 
L 1503 0 
Q 991 0 739 200 
Q 488 400 488 806 
Q 488 878 497 964 
Q 506 1050 525 1153 
L 897 3053 
L 409 3053 
L 500 3500 
L 978 3500 
L 1172 4494 
L 1747 4494 
L 1556 3500 
L 2706 3500 
z
" transform="scale(0.015625)"/>
      </defs>
      <use xlink:href="#DejaVuSans-43" transform="translate(0 0.015625)"/>
      <use xlink:href="#DejaVuSans-6f" transform="translate(69.824219 0.015625)"/>
      <use xlink:href="#DejaVuSans-6e" transform="translate(131.005859 0.015625)"/>
      <use xlink:href="#DejaVuSans-64" transform="translate(194.384766 0.015625)"/>
      <use xlink:href="#DejaVuSans-69" transform="translate(257.861328 0.015625)"/>
      <use xlink:href="#DejaVuSans-74" transform="translate(285.644531 0.015625)"/>
      <use xlink:href="#DejaVuSans-69" transform="translate(324.853516 0.015625)"/>
      <use xlink:href="#DejaVuSans-6f" transform="translate(352.636719 0.015625)"/>
      <use xlink:href="#DejaVuSans-6e" transform="translate(413.818359 0.015625)"/>
      <use xlink:href="#DejaVuSans-61" transform="translate(477.197266 0.015625)"/>
      <use xlink:href="#DejaVuSans-6c" transform="translate(538.476562 0.015625)"/>
      <use xlink:href="#DejaVuSans-20" transform="translate(566.259766 0.015625)"/>
      <use xlink:href="#DejaVuSans-70" transform="translate(598.046875 0.015625)"/>
      <use xlink:href="#DejaVuSans-72" transform="translate(661.523438 0.015625)"/>
      <use xlink:href="#DejaVuSans-6f" transform="translate(702.636719 0.015625)"/>
      <use xlink:href="#DejaVuSans-62" transform="translate(763.818359 0.015625)"/>
      <use xlink:href="#DejaVuSans-61" transform="translate(827.294922 0.015625)"/>
      <use xlink:href="#DejaVuSans-62" transform="translate(888.574219 0.015625)"/>
      <use xlink:href="#DejaVuSans-69" transform="translate(952.050781 0.015625)"/>
      <use xlink:href="#DejaVuSans-6c" transform="translate(979.833984 0.015625)"/>
      <use xlink:href="#DejaVuSans-69" transform="translate(1007.617188 0.015625)"/>
      <use xlink:href="#DejaVuSans-74" transform="translate(1035.400391 0.015625)"/>
      <use xlink:href="#DejaVuSans-79" transform="translate(1074.609375 0.015625)"/>
      <use xlink:href="#DejaVuSans-20" transform="translate(1133.789062 0.015625)"/>
      <use xlink:href="#DejaVuSans-6f" transform="translate(1165.576172 0.015625)"/>
      <use xlink:href="#DejaVuSans-66" transform="translate(1226.757812 0.015625)"/>
      <use xlink:href="#DejaVuSans-20" transform="translate(1261.962891 0.015625)"/>
      <use xlink:href="#DejaVuSans-74" transform="translate(1293.75 0.015625)"/>
      <use xlink:href="#DejaVuSans-61" transform="translate(1332.958984 0.015625)"/>
      <use xlink:href="#DejaVuSans-63" transform="translate(1394.238281 0.015625)"/>
      <use xlink:href="#DejaVuSans-74" transform="translate(1449.21875 0.015625)"/>
      <use xlink:href="#DejaVuSans-69" transform="translate(1488.427734 0.015625)"/>
      <use xlink:href="#DejaVuSans-63" transform="translate(1516.210938 0.015625)"/>
      <use xlink:href="#DejaVuSans-20" transform="translate(1571.191406 0.015625)"/>
      <use xlink:href="#DejaVuSans-69" transform="translate(1602.978516 0.015625)"/>
      <use xlink:href="#DejaVuSans-6e" transform="translate(1630.761719 0.015625)"/>
      <use xlink:href="#DejaVuSans-20" transform="translate(1694.140625 0.015625)"/>
      <use xlink:href="#DejaVuSans-74" transform="translate(1725.927734 0.015625)"/>
      <use xlink:href="#DejaVuSans-75" transform="translate(1765.136719 0.015625)"/>
      <use xlink:href="#DejaVuSans-72" transform="translate(1828.515625 0.015625)"/>
      <use xlink:href="#DejaVuSans-6e" transform="translate(1869.628906 0.015625)"/>
      <use xlink:href="#DejaVuSans-20" transform="translate(1933.007812 0.015625)"/>
      <use xlink:href="#DejaVuSans-Oblique-74" transform="translate(1964.794922 0.015625)"/>
      <use xlink:href="#DejaVuSans-20" transform="translate(2004.003906 0.015625)"/>
      <use xlink:href="#DejaVuSans-20" transform="translate(2035.791016 0.015625)"/>
      <use xlink:href="#DejaVuSans-5b" transform="translate(2067.578125 0.015625)"/>
      <use xlink:href="#DejaVuSans-25" transform="translate(2106.591797 0.015625)"/>
      <use xlink:href="#DejaVuSans-5d" transform="translate(2201.611328 0.015625)"/>
     </g>
    </g>
   </g>
   <g id="matplotlib.axis_4">
    <g id="ytick_11">
     <g id="line2d_38">
      <g>
       <use xlink:href="#m764d4bc781" x="355.799385" y="196.151535" style="stroke: #000000; stroke-width: 0.8"/>
      </g>
     </g>
    </g>
    <g id="ytick_12">
     <g id="line2d_39">
      <g>
       <use xlink:href="#m764d4bc781" x="355.799385" y="177.206437" style="stroke: #000000; stroke-width: 0.8"/>
      </g>
     </g>
    </g>
    <g id="ytick_13">
     <g id="line2d_40">
      <g>
       <use xlink:href="#m764d4bc781" x="355.799385" y="158.261339" style="stroke: #000000; stroke-width: 0.8"/>
      </g>
     </g>
    </g>
    <g id="ytick_14">
     <g id="line2d_41">
      <g>
       <use xlink:href="#m764d4bc781" x="355.799385" y="139.316241" style="stroke: #000000; stroke-width: 0.8"/>
      </g>
     </g>
    </g>
    <g id="ytick_15">
     <g id="line2d_42">
      <g>
       <use xlink:href="#m764d4bc781" x="355.799385" y="120.371143" style="stroke: #000000; stroke-width: 0.8"/>
      </g>
     </g>
    </g>
    <g id="ytick_16">
     <g id="line2d_43">
      <g>
       <use xlink:href="#m764d4bc781" x="355.799385" y="101.426045" style="stroke: #000000; stroke-width: 0.8"/>
      </g>
     </g>
    </g>
    <g id="ytick_17">
     <g id="line2d_44">
      <g>
       <use xlink:href="#m764d4bc781" x="355.799385" y="82.480947" style="stroke: #000000; stroke-width: 0.8"/>
      </g>
     </g>
    </g>
    <g id="ytick_18">
     <g id="line2d_45">
      <g>
       <use xlink:href="#m764d4bc781" x="355.799385" y="63.535849" style="stroke: #000000; stroke-width: 0.8"/>
      </g>
     </g>
    </g>
    <g id="ytick_19">
     <g id="line2d_46">
      <g>
       <use xlink:href="#m764d4bc781" x="355.799385" y="44.590751" style="stroke: #000000; stroke-width: 0.8"/>
      </g>
     </g>
    </g>
    <g id="ytick_20">
     <g id="line2d_47">
      <g>
       <use xlink:href="#m764d4bc781" x="355.799385" y="25.645653" style="stroke: #000000; stroke-width: 0.8"/>
      </g>
     </g>
    </g>
   </g>
   <g id="LineCollection_21">
    <path d="M 363.662645 196.151535 
L 445.879541 196.151535 
" clip-path="url(#p68dd2a672b)" style="fill: none; stroke: #ececec; stroke-width: 1.2"/>
   </g>
   <g id="LineCollection_22">
    <path d="M 387.520147 177.206437 
L 473.005238 177.206437 
" clip-path="url(#p68dd2a672b)" style="fill: none; stroke: #ececec; stroke-width: 1.2"/>
   </g>
   <g id="LineCollection_23">
    <path d="M 394.388306 158.261339 
L 479.800939 158.261339 
" clip-path="url(#p68dd2a672b)" style="fill: none; stroke: #ececec; stroke-width: 1.2"/>
   </g>
   <g id="LineCollection_24">
    <path d="M 396.213405 139.316241 
L 501.78703 139.316241 
" clip-path="url(#p68dd2a672b)" style="fill: none; stroke: #ececec; stroke-width: 1.2"/>
   </g>
   <g id="LineCollection_25">
    <path d="M 397.747828 120.371143 
L 488.545968 120.371143 
" clip-path="url(#p68dd2a672b)" style="fill: none; stroke: #ececec; stroke-width: 1.2"/>
   </g>
   <g id="LineCollection_26">
    <path d="M 392.645818 101.426045 
L 539.21976 101.426045 
" clip-path="url(#p68dd2a672b)" style="fill: none; stroke: #ececec; stroke-width: 1.2"/>
   </g>
   <g id="LineCollection_27">
    <path d="M 428.205177 82.480947 
L 536.322846 82.480947 
" clip-path="url(#p68dd2a672b)" style="fill: none; stroke: #ececec; stroke-width: 1.2"/>
   </g>
   <g id="LineCollection_28">
    <path d="M 414.098194 63.535849 
L 548.312436 63.535849 
" clip-path="url(#p68dd2a672b)" style="fill: none; stroke: #ececec; stroke-width: 1.2"/>
   </g>
   <g id="LineCollection_29">
    <path d="M 370.387803 44.590751 
L 587.417069 44.590751 
" clip-path="url(#p68dd2a672b)" style="fill: none; stroke: #ececec; stroke-width: 1.2"/>
   </g>
   <g id="LineCollection_30">
    <path d="M 424.447721 25.645653 
L 604.01147 25.645653 
" clip-path="url(#p68dd2a672b)" style="fill: none; stroke: #ececec; stroke-width: 1.2"/>
   </g>
   <g id="LineCollection_31">
    <path d="M 363.662645 196.151535 
L 369.357803 196.151535 
" clip-path="url(#p68dd2a672b)" style="fill: none; stroke: #d8d8d8; stroke-width: 5; stroke-linecap: round"/>
   </g>
   <g id="LineCollection_32">
    <path d="M 387.520147 177.206437 
L 410.738746 177.206437 
" clip-path="url(#p68dd2a672b)" style="fill: none; stroke: #d8d8d8; stroke-width: 5; stroke-linecap: round"/>
   </g>
   <g id="LineCollection_33">
    <path d="M 403.629771 158.261339 
L 422.751315 158.261339 
" clip-path="url(#p68dd2a672b)" style="fill: none; stroke: #d8d8d8; stroke-width: 5; stroke-linecap: round"/>
   </g>
   <g id="LineCollection_34">
    <path d="M 396.213405 139.316241 
L 433.359086 139.316241 
" clip-path="url(#p68dd2a672b)" style="fill: none; stroke: #d8d8d8; stroke-width: 5; stroke-linecap: round"/>
   </g>
   <g id="LineCollection_35">
    <path d="M 397.747828 120.371143 
L 417.901636 120.371143 
" clip-path="url(#p68dd2a672b)" style="fill: none; stroke: #d8d8d8; stroke-width: 5; stroke-linecap: round"/>
   </g>
   <g id="LineCollection_36">
    <path d="M 407.653594 101.426045 
L 454.982741 101.426045 
" clip-path="url(#p68dd2a672b)" style="fill: none; stroke: #d8d8d8; stroke-width: 5; stroke-linecap: round"/>
   </g>
   <g id="LineCollection_37">
    <path d="M 432.530843 82.480947 
L 482.845167 82.480947 
" clip-path="url(#p68dd2a672b)" style="fill: none; stroke: #d8d8d8; stroke-width: 5; stroke-linecap: round"/>
   </g>
   <g id="LineCollection_38">
    <path d="M 414.098194 63.535849 
L 449.020411 63.535849 
" clip-path="url(#p68dd2a672b)" style="fill: none; stroke: #d8d8d8; stroke-width: 5; stroke-linecap: round"/>
   </g>
   <g id="LineCollection_39">
    <path d="M 478.553966 44.590751 
L 519.375903 44.590751 
" clip-path="url(#p68dd2a672b)" style="fill: none; stroke: #d8d8d8; stroke-width: 5; stroke-linecap: round"/>
   </g>
   <g id="LineCollection_40">
    <path d="M 475.078001 25.645653 
L 594.466861 25.645653 
" clip-path="url(#p68dd2a672b)" style="fill: none; stroke: #d8d8d8; stroke-width: 5; stroke-linecap: round"/>
   </g>
   <g id="patch_7">
    <path d="M 355.799385 207.518594 
L 355.799385 14.278594 
" style="fill: none; stroke: #b8b8b8; stroke-width: 0.6; stroke-linejoin: miter; stroke-linecap: square"/>
   </g>
   <g id="patch_8">
    <path d="M 355.799385 207.518594 
L 624.909141 207.518594 
" style="fill: none; stroke: #b8b8b8; stroke-width: 0.6; stroke-linejoin: miter; stroke-linecap: square"/>
   </g>
   <g id="PathCollection_12">
    <defs>
     <path id="m275cfc4b03" d="M 0 2.645751 
C 0.701661 2.645751 1.374679 2.366978 1.870829 1.870829 
C 2.366978 1.374679 2.645751 0.701661 2.645751 0 
C 2.645751 -0.701661 2.366978 -1.374679 1.870829 -1.870829 
C 1.374679 -2.366978 0.701661 -2.645751 0 -2.645751 
C -0.701661 -2.645751 -1.374679 -2.366978 -1.870829 -1.870829 
C -2.366978 -1.374679 -2.645751 -0.701661 -2.645751 0 
C -2.645751 0.701661 -2.366978 1.374679 -1.870829 1.870829 
C -1.374679 2.366978 -0.701661 2.645751 0 2.645751 
z
" style="stroke: #ffffff; stroke-width: 0.5"/>
    </defs>
    <g clip-path="url(#p68dd2a672b)">
     <use xlink:href="#m275cfc4b03" x="366.667885" y="196.151535" style="fill: #999999; stroke: #ffffff; stroke-width: 0.5"/>
    </g>
   </g>
   <g id="PathCollection_13">
    <g clip-path="url(#p68dd2a672b)">
     <use xlink:href="#m275cfc4b03" x="399.169595" y="177.206437" style="fill: #999999; stroke: #ffffff; stroke-width: 0.5"/>
    </g>
   </g>
   <g id="PathCollection_14">
    <g clip-path="url(#p68dd2a672b)">
     <use xlink:href="#m275cfc4b03" x="421.960607" y="158.261339" style="fill: #999999; stroke: #ffffff; stroke-width: 0.5"/>
    </g>
   </g>
   <g id="PathCollection_15">
    <g clip-path="url(#p68dd2a672b)">
     <use xlink:href="#m275cfc4b03" x="424.820955" y="139.316241" style="fill: #999999; stroke: #ffffff; stroke-width: 0.5"/>
    </g>
   </g>
   <g id="PathCollection_16">
    <g clip-path="url(#p68dd2a672b)">
     <use xlink:href="#m275cfc4b03" x="412.324201" y="120.371143" style="fill: #999999; stroke: #ffffff; stroke-width: 0.5"/>
    </g>
   </g>
   <g id="PathCollection_17">
    <g clip-path="url(#p68dd2a672b)">
     <use xlink:href="#m275cfc4b03" x="444.266662" y="101.426045" style="fill: #999999; stroke: #ffffff; stroke-width: 0.5"/>
    </g>
   </g>
   <g id="PathCollection_18">
    <g clip-path="url(#p68dd2a672b)">
     <use xlink:href="#m275cfc4b03" x="434.677553" y="82.480947" style="fill: #999999; stroke: #ffffff; stroke-width: 0.5"/>
    </g>
   </g>
   <g id="PathCollection_19">
    <g clip-path="url(#p68dd2a672b)">
     <use xlink:href="#m275cfc4b03" x="442.25546" y="63.535849" style="fill: #999999; stroke: #ffffff; stroke-width: 0.5"/>
    </g>
   </g>
   <g id="PathCollection_20">
    <g clip-path="url(#p68dd2a672b)">
     <use xlink:href="#m275cfc4b03" x="499.93557" y="44.590751" style="fill: #999999; stroke: #ffffff; stroke-width: 0.5"/>
    </g>
   </g>
   <g id="PathCollection_21">
    <g clip-path="url(#p68dd2a672b)">
     <use xlink:href="#m275cfc4b03" x="558.950867" y="25.645653" style="fill: #999999; stroke: #ffffff; stroke-width: 0.5"/>
    </g>
   </g>
   <g id="text_29">
    <!-- Tactic Stickiness -->
    <g transform="translate(448.482466 8.278594) scale(0.09 -0.09)">
     <defs>
      <path id="DejaVuSans-Bold-53" d="M 3834 4519 
L 3834 3531 
Q 3450 3703 3084 3790 
Q 2719 3878 2394 3878 
Q 1963 3878 1756 3759 
Q 1550 3641 1550 3391 
Q 1550 3203 1689 3098 
Q 1828 2994 2194 2919 
L 2706 2816 
Q 3484 2659 3812 2340 
Q 4141 2022 4141 1434 
Q 4141 663 3683 286 
Q 3225 -91 2284 -91 
Q 1841 -91 1394 -6 
Q 947 78 500 244 
L 500 1259 
Q 947 1022 1364 901 
Q 1781 781 2169 781 
Q 2563 781 2772 912 
Q 2981 1044 2981 1288 
Q 2981 1506 2839 1625 
Q 2697 1744 2272 1838 
L 1806 1941 
Q 1106 2091 782 2419 
Q 459 2747 459 3303 
Q 459 4000 909 4375 
Q 1359 4750 2203 4750 
Q 2588 4750 2994 4692 
Q 3400 4634 3834 4519 
z
" transform="scale(0.015625)"/>
      <path id="DejaVuSans-Bold-6b" d="M 538 4863 
L 1656 4863 
L 1656 2216 
L 2944 3500 
L 4244 3500 
L 2534 1894 
L 4378 0 
L 3022 0 
L 1656 1459 
L 1656 0 
L 538 0 
L 538 4863 
z
" transform="scale(0.015625)"/>
      <path id="DejaVuSans-Bold-73" d="M 3272 3391 
L 3272 2541 
Q 2913 2691 2578 2766 
Q 2244 2841 1947 2841 
Q 1628 2841 1473 2761 
Q 1319 2681 1319 2516 
Q 1319 2381 1436 2309 
Q 1553 2238 1856 2203 
L 2053 2175 
Q 2913 2066 3209 1816 
Q 3506 1566 3506 1031 
Q 3506 472 3093 190 
Q 2681 -91 1863 -91 
Q 1516 -91 1145 -36 
Q 775 19 384 128 
L 384 978 
Q 719 816 1070 734 
Q 1422 653 1784 653 
Q 2113 653 2278 743 
Q 2444 834 2444 1013 
Q 2444 1163 2330 1236 
Q 2216 1309 1875 1350 
L 1678 1375 
Q 931 1469 631 1722 
Q 331 1975 331 2491 
Q 331 3047 712 3315 
Q 1094 3584 1881 3584 
Q 2191 3584 2531 3537 
Q 2872 3491 3272 3391 
z
" transform="scale(0.015625)"/>
     </defs>
     <use xlink:href="#DejaVuSans-Bold-54"/>
     <use xlink:href="#DejaVuSans-Bold-61" transform="translate(55.337891 0)"/>
     <use xlink:href="#DejaVuSans-Bold-63" transform="translate(122.818359 0)"/>
     <use xlink:href="#DejaVuSans-Bold-74" transform="translate(182.095703 0)"/>
     <use xlink:href="#DejaVuSans-Bold-69" transform="translate(229.898438 0)"/>
     <use xlink:href="#DejaVuSans-Bold-63" transform="translate(264.175781 0)"/>
     <use xlink:href="#DejaVuSans-Bold-20" transform="translate(323.453125 0)"/>
     <use xlink:href="#DejaVuSans-Bold-53" transform="translate(358.267578 0)"/>
     <use xlink:href="#DejaVuSans-Bold-74" transform="translate(430.289062 0)"/>
     <use xlink:href="#DejaVuSans-Bold-69" transform="translate(478.091797 0)"/>
     <use xlink:href="#DejaVuSans-Bold-63" transform="translate(512.369141 0)"/>
     <use xlink:href="#DejaVuSans-Bold-6b" transform="translate(571.646484 0)"/>
     <use xlink:href="#DejaVuSans-Bold-69" transform="translate(638.150391 0)"/>
     <use xlink:href="#DejaVuSans-Bold-6e" transform="translate(672.427734 0)"/>
     <use xlink:href="#DejaVuSans-Bold-65" transform="translate(743.619141 0)"/>
     <use xlink:href="#DejaVuSans-Bold-73" transform="translate(811.441406 0)"/>
     <use xlink:href="#DejaVuSans-Bold-73" transform="translate(870.962891 0)"/>
    </g>
   </g>
   <g id="LineCollection_41">
    <path d="M 361.076046 196.151535 
L 445.879541 196.151535 
" clip-path="url(#p68dd2a672b)" style="fill: none; stroke: #b3cde3; stroke-width: 7; stroke-linecap: round"/>
   </g>
   <g id="LineCollection_42">
    <path d="M 405.048229 177.206437 
L 473.005238 177.206437 
" clip-path="url(#p68dd2a672b)" style="fill: none; stroke: #b3cde3; stroke-width: 7; stroke-linecap: round"/>
   </g>
   <g id="LineCollection_43">
    <path d="M 454.982741 158.261339 
L 479.800939 158.261339 
" clip-path="url(#p68dd2a672b)" style="fill: none; stroke: #b3cde3; stroke-width: 7; stroke-linecap: round"/>
   </g>
   <g id="LineCollection_44">
    <path d="M 476.080216 139.316241 
L 501.78703 139.316241 
" clip-path="url(#p68dd2a672b)" style="fill: none; stroke: #b3cde3; stroke-width: 7; stroke-linecap: round"/>
   </g>
   <g id="LineCollection_45">
    <path d="M 465.220689 120.371143 
L 488.545968 120.371143 
" clip-path="url(#p68dd2a672b)" style="fill: none; stroke: #b3cde3; stroke-width: 7; stroke-linecap: round"/>
   </g>
   <g id="LineCollection_46">
    <path d="M 486.996387 101.426045 
L 539.21976 101.426045 
" clip-path="url(#p68dd2a672b)" style="fill: none; stroke: #b3cde3; stroke-width: 7; stroke-linecap: round"/>
   </g>
   <g id="LineCollection_47">
    <path d="M 499.103169 82.480947 
L 536.322846 82.480947 
" clip-path="url(#p68dd2a672b)" style="fill: none; stroke: #b3cde3; stroke-width: 7; stroke-linecap: round"/>
   </g>
   <g id="LineCollection_48">
    <path d="M 472.105807 63.535849 
L 548.312436 63.535849 
" clip-path="url(#p68dd2a672b)" style="fill: none; stroke: #b3cde3; stroke-width: 7; stroke-linecap: round"/>
   </g>
   <g id="LineCollection_49">
    <path d="M 573.65241 44.590751 
L 587.417069 44.590751 
" clip-path="url(#p68dd2a672b)" style="fill: none; stroke: #b3cde3; stroke-width: 7; stroke-linecap: round"/>
   </g>
   <g id="LineCollection_50">
    <path d="M 575.415489 25.645653 
L 604.01147 25.645653 
" clip-path="url(#p68dd2a672b)" style="fill: none; stroke: #b3cde3; stroke-width: 7; stroke-linecap: round"/>
   </g>
   <g id="PathCollection_22">
    <defs>
     <path id="m0bdac154d3" d="M 0 3.24037 
C 0.859356 3.24037 1.683631 2.898944 2.291288 2.291288 
C 2.898944 1.683631 3.24037 0.859356 3.24037 0 
C 3.24037 -0.859356 2.898944 -1.683631 2.291288 -2.291288 
C 1.683631 -2.898944 0.859356 -3.24037 0 -3.24037 
C -0.859356 -3.24037 -1.683631 -2.898944 -2.291288 -2.291288 
C -2.898944 -1.683631 -3.24037 -0.859356 -3.24037 0 
C -3.24037 0.859356 -2.898944 1.683631 -2.291288 2.291288 
C -1.683631 2.898944 -0.859356 3.24037 0 3.24037 
z
" style="stroke: #ffffff; stroke-width: 0.6"/>
    </defs>
    <g clip-path="url(#p68dd2a672b)">
     <use xlink:href="#m0bdac154d3" x="361.076046" y="196.151535" style="fill: #2c6ba0; stroke: #ffffff; stroke-width: 0.6"/>
    </g>
   </g>
   <g id="PathCollection_23">
    <g clip-path="url(#p68dd2a672b)">
     <use xlink:href="#m0bdac154d3" x="457.600349" y="177.206437" style="fill: #2c6ba0; stroke: #ffffff; stroke-width: 0.6"/>
    </g>
   </g>
   <g id="PathCollection_24">
    <g clip-path="url(#p68dd2a672b)">
     <use xlink:href="#m0bdac154d3" x="462.550313" y="158.261339" style="fill: #2c6ba0; stroke: #ffffff; stroke-width: 0.6"/>
    </g>
   </g>
   <g id="PathCollection_25">
    <g clip-path="url(#p68dd2a672b)">
     <use xlink:href="#m0bdac154d3" x="501.341742" y="139.316241" style="fill: #2c6ba0; stroke: #ffffff; stroke-width: 0.6"/>
    </g>
   </g>
   <g id="PathCollection_26">
    <g clip-path="url(#p68dd2a672b)">
     <use xlink:href="#m0bdac154d3" x="485.232797" y="120.371143" style="fill: #2c6ba0; stroke: #ffffff; stroke-width: 0.6"/>
    </g>
   </g>
   <g id="PathCollection_27">
    <g clip-path="url(#p68dd2a672b)">
     <use xlink:href="#m0bdac154d3" x="492.440641" y="101.426045" style="fill: #2c6ba0; stroke: #ffffff; stroke-width: 0.6"/>
    </g>
   </g>
   <g id="PathCollection_28">
    <g clip-path="url(#p68dd2a672b)">
     <use xlink:href="#m0bdac154d3" x="533.766799" y="82.480947" style="fill: #2c6ba0; stroke: #ffffff; stroke-width: 0.6"/>
    </g>
   </g>
   <g id="PathCollection_29">
    <g clip-path="url(#p68dd2a672b)">
     <use xlink:href="#m0bdac154d3" x="538.481058" y="63.535849" style="fill: #2c6ba0; stroke: #ffffff; stroke-width: 0.6"/>
    </g>
   </g>
   <g id="PathCollection_30">
    <g clip-path="url(#p68dd2a672b)">
     <use xlink:href="#m0bdac154d3" x="579.93759" y="44.590751" style="fill: #2c6ba0; stroke: #ffffff; stroke-width: 0.6"/>
    </g>
   </g>
   <g id="PathCollection_31">
    <g clip-path="url(#p68dd2a672b)">
     <use xlink:href="#m0bdac154d3" x="600.648626" y="25.645653" style="fill: #2c6ba0; stroke: #ffffff; stroke-width: 0.6"/>
    </g>
   </g>
   <g id="legend_2">
    <g id="patch_9">
     <path d="M 575.419141 162.255794 
L 621.059141 162.255794 
Q 622.159141 162.255794 622.159141 161.155794 
L 622.159141 132.861887 
Q 622.159141 131.761888 621.059141 131.761888 
L 575.419141 131.761888 
Q 574.319141 131.761888 574.319141 132.861887 
L 574.319141 161.155794 
Q 574.319141 162.255794 575.419141 162.255794 
z
" style="fill: #ffffff; opacity: 0.9; stroke: #cccccc; stroke-linejoin: miter"/>
    </g>
    <g id="text_30">
     <!-- $P\,(\mathrm{in}\ t \mid \mathrm{in}\ t\!-\!1)$ -->
     <g transform="translate(576.519141 138.641887) scale(0.06 -0.06)">
      <defs>
       <path id="DejaVuSans-Oblique-50" d="M 1081 4666 
L 2541 4666 
Q 3178 4666 3512 4369 
Q 3847 4072 3847 3500 
Q 3847 2731 3353 2303 
Q 2859 1875 1966 1875 
L 1172 1875 
L 806 0 
L 172 0 
L 1081 4666 
z
M 1613 4147 
L 1275 2394 
L 2069 2394 
Q 2606 2394 2893 2669 
Q 3181 2944 3181 3456 
Q 3181 3784 2986 3965 
Q 2791 4147 2438 4147 
L 1613 4147 
z
" transform="scale(0.015625)"/>
       <path id="DejaVuSans-2223" d="M 1350 4934 
L 1850 4934 
L 1850 -1369 
L 1350 -1369 
L 1350 4934 
z
" transform="scale(0.015625)"/>
       <path id="DejaVuSans-2212" d="M 678 2272 
L 4684 2272 
L 4684 1741 
L 678 1741 
L 678 2272 
z
" transform="scale(0.015625)"/>
      </defs>
      <use xlink:href="#DejaVuSans-Oblique-50" transform="translate(0 0.90625)"/>
      <use xlink:href="#DejaVuSans-28" transform="translate(76.538411 0.90625)"/>
      <use xlink:href="#DejaVuSans-69" transform="translate(115.552083 0.90625)"/>
      <use xlink:href="#DejaVuSans-6e" transform="translate(143.335286 0.90625)"/>
      <use xlink:href="#DejaVuSans-Oblique-74" transform="translate(239.18457 0.90625)"/>
      <use xlink:href="#DejaVuSans-2223" transform="translate(297.875977 0.90625)"/>
      <use xlink:href="#DejaVuSans-69" transform="translate(367.358398 0.90625)"/>
      <use xlink:href="#DejaVuSans-6e" transform="translate(395.141602 0.90625)"/>
      <use xlink:href="#DejaVuSans-Oblique-74" transform="translate(490.990886 0.90625)"/>
      <use xlink:href="#DejaVuSans-2212" transform="translate(533.446616 0.90625)"/>
      <use xlink:href="#DejaVuSans-31" transform="translate(620.482424 0.90625)"/>
      <use xlink:href="#DejaVuSans-29" transform="translate(684.105471 0.90625)"/>
     </g>
    </g>
    <g id="line2d_48">
     <defs>
      <path id="mc2a1da577a" d="M -0 3.535534 
L 3.535534 0 
L 0 -3.535534 
L -3.535534 -0 
z
" style="stroke: #ffffff; stroke-width: 0.5; stroke-linejoin: miter"/>
     </defs>
     <g>
      <use xlink:href="#mc2a1da577a" x="582.556406" y="143.591028" style="fill: #d66b4b; stroke: #ffffff; stroke-width: 0.5; stroke-linejoin: miter"/>
     </g>
    </g>
    <g id="text_31">
     <!-- Human -->
     <g transform="translate(588.606406 145.516028) scale(0.055 -0.055)">
      <use xlink:href="#DejaVuSans-48"/>
      <use xlink:href="#DejaVuSans-75" transform="translate(75.195312 0)"/>
      <use xlink:href="#DejaVuSans-6d" transform="translate(138.574219 0)"/>
      <use xlink:href="#DejaVuSans-61" transform="translate(235.986328 0)"/>
      <use xlink:href="#DejaVuSans-6e" transform="translate(297.265625 0)"/>
     </g>
    </g>
    <g id="line2d_49">
     <defs>
      <path id="m07826f03f6" d="M 0 2.25 
C 0.596707 2.25 1.169055 2.012926 1.59099 1.59099 
C 2.012926 1.169055 2.25 0.596707 2.25 0 
C 2.25 -0.596707 2.012926 -1.169055 1.59099 -1.59099 
C 1.169055 -2.012926 0.596707 -2.25 0 -2.25 
C -0.596707 -2.25 -1.169055 -2.012926 -1.59099 -1.59099 
C -2.012926 -1.169055 -2.25 -0.596707 -2.25 0 
C -2.25 0.596707 -2.012926 1.169055 -1.59099 1.59099 
C -1.169055 2.012926 -0.596707 2.25 0 2.25 
z
" style="stroke: #ffffff; stroke-width: 0.5"/>
     </defs>
     <g>
      <use xlink:href="#m07826f03f6" x="582.556406" y="150.288997" style="fill: #2c6ba0; stroke: #ffffff; stroke-width: 0.5"/>
     </g>
    </g>
    <g id="text_32">
     <!-- LLM med. -->
     <g transform="translate(588.606406 152.213997) scale(0.055 -0.055)">
      <use xlink:href="#DejaVuSans-4c"/>
      <use xlink:href="#DejaVuSans-4c" transform="translate(55.712891 0)"/>
      <use xlink:href="#DejaVuSans-4d" transform="translate(111.425781 0)"/>
      <use xlink:href="#DejaVuSans-20" transform="translate(197.705078 0)"/>
      <use xlink:href="#DejaVuSans-6d" transform="translate(229.492188 0)"/>
      <use xlink:href="#DejaVuSans-65" transform="translate(326.904297 0)"/>
      <use xlink:href="#DejaVuSans-64" transform="translate(388.427734 0)"/>
      <use xlink:href="#DejaVuSans-2e" transform="translate(451.904297 0)"/>
     </g>
    </g>
    <g id="line2d_50">
     <path d="M 579.256406 156.986966 
L 582.556406 156.986966 
L 585.856406 156.986966 
" style="fill: none; stroke: #b3cde3; stroke-width: 4; stroke-linecap: round"/>
    </g>
    <g id="text_33">
     <!-- LLM range -->
     <g transform="translate(588.606406 158.911966) scale(0.055 -0.055)">
      <use xlink:href="#DejaVuSans-4c"/>
      <use xlink:href="#DejaVuSans-4c" transform="translate(55.712891 0)"/>
      <use xlink:href="#DejaVuSans-4d" transform="translate(111.425781 0)"/>
      <use xlink:href="#DejaVuSans-20" transform="translate(197.705078 0)"/>
      <use xlink:href="#DejaVuSans-72" transform="translate(229.492188 0)"/>
      <use xlink:href="#DejaVuSans-61" transform="translate(270.605469 0)"/>
      <use xlink:href="#DejaVuSans-6e" transform="translate(331.884766 0)"/>
      <use xlink:href="#DejaVuSans-67" transform="translate(395.263672 0)"/>
      <use xlink:href="#DejaVuSans-65" transform="translate(458.740234 0)"/>
     </g>
    </g>
   </g>
   <g id="legend_3">
    <g id="patch_10">
     <path d="M 560.599141 204.768594 
L 621.059141 204.768594 
Q 622.159141 204.768594 622.159141 203.668594 
L 622.159141 175.374687 
Q 622.159141 174.274687 621.059141 174.274687 
L 560.599141 174.274687 
Q 559.499141 174.274687 559.499141 175.374687 
L 559.499141 203.668594 
Q 559.499141 204.768594 560.599141 204.768594 
z
" style="fill: #ffffff; opacity: 0.9; stroke: #cccccc; stroke-linejoin: miter"/>
    </g>
    <g id="text_34">
     <!-- $P\,(\mathrm{in}\ t \mid \mathrm{NOT\ in}\ t\!-\!1)$ -->
     <g transform="translate(561.699141 181.154687) scale(0.06 -0.06)">
      <defs>
       <path id="DejaVuSans-4e" d="M 628 4666 
L 1478 4666 
L 3547 763 
L 3547 4666 
L 4159 4666 
L 4159 0 
L 3309 0 
L 1241 3903 
L 1241 0 
L 628 0 
L 628 4666 
z
" transform="scale(0.015625)"/>
       <path id="DejaVuSans-4f" d="M 2522 4238 
Q 1834 4238 1429 3725 
Q 1025 3213 1025 2328 
Q 1025 1447 1429 934 
Q 1834 422 2522 422 
Q 3209 422 3611 934 
Q 4013 1447 4013 2328 
Q 4013 3213 3611 3725 
Q 3209 4238 2522 4238 
z
M 2522 4750 
Q 3503 4750 4090 4092 
Q 4678 3434 4678 2328 
Q 4678 1225 4090 567 
Q 3503 -91 2522 -91 
Q 1538 -91 948 565 
Q 359 1222 359 2328 
Q 359 3434 948 4092 
Q 1538 4750 2522 4750 
z
" transform="scale(0.015625)"/>
      </defs>
      <use xlink:href="#DejaVuSans-Oblique-50" transform="translate(0 0.90625)"/>
      <use xlink:href="#DejaVuSans-28" transform="translate(76.538411 0.90625)"/>
      <use xlink:href="#DejaVuSans-69" transform="translate(115.552083 0.90625)"/>
      <use xlink:href="#DejaVuSans-6e" transform="translate(143.335286 0.90625)"/>
      <use xlink:href="#DejaVuSans-Oblique-74" transform="translate(239.18457 0.90625)"/>
      <use xlink:href="#DejaVuSans-2223" transform="translate(297.875977 0.90625)"/>
      <use xlink:href="#DejaVuSans-4e" transform="translate(367.358398 0.90625)"/>
      <use xlink:href="#DejaVuSans-4f" transform="translate(442.163086 0.90625)"/>
      <use xlink:href="#DejaVuSans-54" transform="translate(520.874023 0.90625)"/>
      <use xlink:href="#DejaVuSans-69" transform="translate(614.428386 0.90625)"/>
      <use xlink:href="#DejaVuSans-6e" transform="translate(642.211589 0.90625)"/>
      <use xlink:href="#DejaVuSans-Oblique-74" transform="translate(738.060874 0.90625)"/>
      <use xlink:href="#DejaVuSans-2212" transform="translate(780.516604 0.90625)"/>
      <use xlink:href="#DejaVuSans-31" transform="translate(867.552412 0.90625)"/>
      <use xlink:href="#DejaVuSans-29" transform="translate(931.175459 0.90625)"/>
     </g>
    </g>
    <g id="line2d_51">
     <defs>
      <path id="mfde9bf0488" d="M -0 3.535534 
L 3.535534 0 
L 0 -3.535534 
L -3.535534 -0 
z
" style="stroke: #999999; stroke-width: 0.8; stroke-linejoin: miter"/>
     </defs>
     <g>
      <use xlink:href="#mfde9bf0488" x="575.146406" y="186.103828" style="fill-opacity: 0; stroke: #999999; stroke-width: 0.8; stroke-linejoin: miter"/>
     </g>
    </g>
    <g id="text_35">
     <!-- Human -->
     <g transform="translate(581.196406 188.028828) scale(0.055 -0.055)">
      <use xlink:href="#DejaVuSans-48"/>
      <use xlink:href="#DejaVuSans-75" transform="translate(75.195312 0)"/>
      <use xlink:href="#DejaVuSans-6d" transform="translate(138.574219 0)"/>
      <use xlink:href="#DejaVuSans-61" transform="translate(235.986328 0)"/>
      <use xlink:href="#DejaVuSans-6e" transform="translate(297.265625 0)"/>
     </g>
    </g>
    <g id="line2d_52">
     <defs>
      <path id="m875779e158" d="M 0 2.25 
C 0.596707 2.25 1.169055 2.012926 1.59099 1.59099 
C 2.012926 1.169055 2.25 0.596707 2.25 0 
C 2.25 -0.596707 2.012926 -1.169055 1.59099 -1.59099 
C 1.169055 -2.012926 0.596707 -2.25 0 -2.25 
C -0.596707 -2.25 -1.169055 -2.012926 -1.59099 -1.59099 
C -2.012926 -1.169055 -2.25 -0.596707 -2.25 0 
C -2.25 0.596707 -2.012926 1.169055 -1.59099 1.59099 
C -1.169055 2.012926 -0.596707 2.25 0 2.25 
z
" style="stroke: #ffffff; stroke-width: 0.5"/>
     </defs>
     <g>
      <use xlink:href="#m875779e158" x="575.146406" y="192.801797" style="fill: #999999; stroke: #ffffff; stroke-width: 0.5"/>
     </g>
    </g>
    <g id="text_36">
     <!-- LLM med. -->
     <g transform="translate(581.196406 194.726797) scale(0.055 -0.055)">
      <use xlink:href="#DejaVuSans-4c"/>
      <use xlink:href="#DejaVuSans-4c" transform="translate(55.712891 0)"/>
      <use xlink:href="#DejaVuSans-4d" transform="translate(111.425781 0)"/>
      <use xlink:href="#DejaVuSans-20" transform="translate(197.705078 0)"/>
      <use xlink:href="#DejaVuSans-6d" transform="translate(229.492188 0)"/>
      <use xlink:href="#DejaVuSans-65" transform="translate(326.904297 0)"/>
      <use xlink:href="#DejaVuSans-64" transform="translate(388.427734 0)"/>
      <use xlink:href="#DejaVuSans-2e" transform="translate(451.904297 0)"/>
     </g>
    </g>
    <g id="line2d_53">
     <path d="M 571.846406 199.499766 
L 575.146406 199.499766 
L 578.446406 199.499766 
" style="fill: none; stroke: #d8d8d8; stroke-width: 4; stroke-linecap: round"/>
    </g>
    <g id="text_37">
     <!-- LLM range -->
     <g transform="translate(581.196406 201.424766) scale(0.055 -0.055)">
      <use xlink:href="#DejaVuSans-4c"/>
      <use xlink:href="#DejaVuSans-4c" transform="translate(55.712891 0)"/>
      <use xlink:href="#DejaVuSans-4d" transform="translate(111.425781 0)"/>
      <use xlink:href="#DejaVuSans-20" transform="translate(197.705078 0)"/>
      <use xlink:href="#DejaVuSans-72" transform="translate(229.492188 0)"/>
      <use xlink:href="#DejaVuSans-61" transform="translate(270.605469 0)"/>
      <use xlink:href="#DejaVuSans-6e" transform="translate(331.884766 0)"/>
      <use xlink:href="#DejaVuSans-67" transform="translate(395.263672 0)"/>
      <use xlink:href="#DejaVuSans-65" transform="translate(458.740234 0)"/>
     </g>
    </g>
   </g>
   <g id="PathCollection_32">
    <defs>
     <path id="C0_0_b0c22017d7" d="M -0 4.743416 
L 4.743416 -0 
L 0 -4.743416 
L -4.743416 -0 
z
"/>
    </defs>
    <g clip-path="url(#p68dd2a672b)">
     <use xlink:href="#C0_0_b0c22017d7" x="369.518705" y="196.151535" style="fill: none; stroke: #999999"/>
    </g>
    <g clip-path="url(#p68dd2a672b)">
     <use xlink:href="#C0_0_b0c22017d7" x="387.793322" y="177.206437" style="fill: none; stroke: #999999"/>
    </g>
    <g clip-path="url(#p68dd2a672b)">
     <use xlink:href="#C0_0_b0c22017d7" x="394.388306" y="158.261339" style="fill: none; stroke: #999999"/>
    </g>
    <g clip-path="url(#p68dd2a672b)">
     <use xlink:href="#C0_0_b0c22017d7" x="403.289341" y="139.316241" style="fill: none; stroke: #999999"/>
    </g>
    <g clip-path="url(#p68dd2a672b)">
     <use xlink:href="#C0_0_b0c22017d7" x="434.363017" y="120.371143" style="fill: none; stroke: #999999"/>
    </g>
    <g clip-path="url(#p68dd2a672b)">
     <use xlink:href="#C0_0_b0c22017d7" x="392.645818" y="101.426045" style="fill: none; stroke: #999999"/>
    </g>
    <g clip-path="url(#p68dd2a672b)">
     <use xlink:href="#C0_0_b0c22017d7" x="428.205177" y="82.480947" style="fill: none; stroke: #999999"/>
    </g>
    <g clip-path="url(#p68dd2a672b)">
     <use xlink:href="#C0_0_b0c22017d7" x="427.759136" y="63.535849" style="fill: none; stroke: #999999"/>
    </g>
    <g clip-path="url(#p68dd2a672b)">
     <use xlink:href="#C0_0_b0c22017d7" x="370.387803" y="44.590751" style="fill: none; stroke: #999999"/>
    </g>
    <g clip-path="url(#p68dd2a672b)">
     <use xlink:href="#C0_0_b0c22017d7" x="424.447721" y="25.645653" style="fill: none; stroke: #999999"/>
    </g>
   </g>
   <g id="PathCollection_33">
    <g clip-path="url(#p68dd2a672b)">
     <use xlink:href="#m693dbb5d7d" x="378.664919" y="196.151535" style="fill: #d66b4b; stroke: #ffffff; stroke-width: 0.6"/>
     <use xlink:href="#m693dbb5d7d" x="408.189099" y="177.206437" style="fill: #d66b4b; stroke: #ffffff; stroke-width: 0.6"/>
     <use xlink:href="#m693dbb5d7d" x="420.143157" y="158.261339" style="fill: #d66b4b; stroke: #ffffff; stroke-width: 0.6"/>
     <use xlink:href="#m693dbb5d7d" x="420.438493" y="139.316241" style="fill: #d66b4b; stroke: #ffffff; stroke-width: 0.6"/>
     <use xlink:href="#m693dbb5d7d" x="485.361058" y="120.371143" style="fill: #d66b4b; stroke: #ffffff; stroke-width: 0.6"/>
     <use xlink:href="#m693dbb5d7d" x="420.651261" y="101.426045" style="fill: #d66b4b; stroke: #ffffff; stroke-width: 0.6"/>
     <use xlink:href="#m693dbb5d7d" x="473.754764" y="82.480947" style="fill: #d66b4b; stroke: #ffffff; stroke-width: 0.6"/>
     <use xlink:href="#m693dbb5d7d" x="465.973542" y="63.535849" style="fill: #d66b4b; stroke: #ffffff; stroke-width: 0.6"/>
     <use xlink:href="#m693dbb5d7d" x="361.076046" y="44.590751" style="fill: #d66b4b; stroke: #ffffff; stroke-width: 0.6"/>
     <use xlink:href="#m693dbb5d7d" x="477.854629" y="25.645653" style="fill: #d66b4b; stroke: #ffffff; stroke-width: 0.6"/>
    </g>
   </g>
  </g>
 </g>
 <defs>
  <clipPath id="p30c445eeda">
   <rect x="73.234141" y="14.278594" width="269.109756" height="193.24"/>
  </clipPath>
  <clipPath id="p68dd2a672b">
   <rect x="355.799385" y="14.278594" width="269.109756" height="193.24"/>
  </clipPath>
 </defs>
</svg>
